<mxfile host="Electron" modified="2023-12-04T12:59:24.691Z" agent="Mozilla/5.0 (Windows NT 10.0; Win64; x64) AppleWebKit/537.36 (KHTML, like Gecko) draw.io/22.0.2 Chrome/114.0.5735.289 Electron/25.8.4 Safari/537.36" etag="PuvdrCETnTZ2L_2YPMZA" version="22.0.2" type="device">
  <diagram name="Seite-1" id="d9cMhFqRtJ0jJkxn3fwI">
    <mxGraphModel dx="1863" dy="710" grid="1" gridSize="10" guides="1" tooltips="1" connect="1" arrows="1" fold="1" page="1" pageScale="1" pageWidth="827" pageHeight="1169" math="0" shadow="1">
      <root>
        <mxCell id="0" />
        <mxCell id="1" parent="0" />
        <mxCell id="ZuteNeyAwJbyWfSGdNgR-1" value="idle" style="ellipse;whiteSpace=wrap;html=1;" parent="1" vertex="1">
          <mxGeometry x="180" y="870" width="120" height="80" as="geometry" />
        </mxCell>
        <mxCell id="ZuteNeyAwJbyWfSGdNgR-2" value="walk" style="ellipse;whiteSpace=wrap;html=1;" parent="1" vertex="1">
          <mxGeometry x="330" y="1020" width="120" height="80" as="geometry" />
        </mxCell>
        <mxCell id="ZuteNeyAwJbyWfSGdNgR-4" value="air" style="ellipse;whiteSpace=wrap;html=1;" parent="1" vertex="1">
          <mxGeometry x="470" y="870" width="120" height="80" as="geometry" />
        </mxCell>
        <mxCell id="ZuteNeyAwJbyWfSGdNgR-5" value="grapple" style="ellipse;whiteSpace=wrap;html=1;" parent="1" vertex="1">
          <mxGeometry x="420" y="1120" width="120" height="80" as="geometry" />
        </mxCell>
        <mxCell id="ZuteNeyAwJbyWfSGdNgR-6" value="grind" style="ellipse;whiteSpace=wrap;html=1;" parent="1" vertex="1">
          <mxGeometry x="650" y="870" width="120" height="80" as="geometry" />
        </mxCell>
        <mxCell id="ZuteNeyAwJbyWfSGdNgR-8" value="wallrun" style="ellipse;whiteSpace=wrap;html=1;" parent="1" vertex="1">
          <mxGeometry x="600" y="760" width="120" height="80" as="geometry" />
        </mxCell>
        <mxCell id="ZuteNeyAwJbyWfSGdNgR-12" value="attack" style="ellipse;whiteSpace=wrap;html=1;" parent="1" vertex="1">
          <mxGeometry x="-70" y="1030" width="120" height="80" as="geometry" />
        </mxCell>
        <mxCell id="ZuteNeyAwJbyWfSGdNgR-13" value="attack air" style="ellipse;whiteSpace=wrap;html=1;" parent="1" vertex="1">
          <mxGeometry x="400" y="1250" width="120" height="80" as="geometry" />
        </mxCell>
        <mxCell id="ZuteNeyAwJbyWfSGdNgR-14" value="crouch" style="ellipse;whiteSpace=wrap;html=1;" parent="1" vertex="1">
          <mxGeometry x="170" y="740" width="120" height="80" as="geometry" />
        </mxCell>
        <mxCell id="ZuteNeyAwJbyWfSGdNgR-15" value="slide" style="ellipse;whiteSpace=wrap;html=1;" parent="1" vertex="1">
          <mxGeometry x="330" y="740" width="120" height="80" as="geometry" />
        </mxCell>
        <mxCell id="ZuteNeyAwJbyWfSGdNgR-16" value="crouch jump" style="ellipse;whiteSpace=wrap;html=1;" parent="1" vertex="1">
          <mxGeometry x="250" y="630" width="120" height="80" as="geometry" />
        </mxCell>
        <mxCell id="ZuteNeyAwJbyWfSGdNgR-17" value="dodge" style="ellipse;whiteSpace=wrap;html=1;" parent="1" vertex="1">
          <mxGeometry x="180" y="1000" width="120" height="80" as="geometry" />
        </mxCell>
        <mxCell id="ZuteNeyAwJbyWfSGdNgR-18" value="parry" style="ellipse;whiteSpace=wrap;html=1;" parent="1" vertex="1">
          <mxGeometry x="-20" y="870" width="120" height="80" as="geometry" />
        </mxCell>
        <mxCell id="ZuteNeyAwJbyWfSGdNgR-19" value="crouch longjump" style="ellipse;whiteSpace=wrap;html=1;" parent="1" vertex="1">
          <mxGeometry x="250" y="520" width="120" height="80" as="geometry" />
        </mxCell>
        <mxCell id="ZuteNeyAwJbyWfSGdNgR-29" value="" style="endArrow=classic;startArrow=classic;html=1;rounded=0;exitX=1;exitY=0;exitDx=0;exitDy=0;entryX=0;entryY=1;entryDx=0;entryDy=0;" parent="1" source="ZuteNeyAwJbyWfSGdNgR-4" target="ZuteNeyAwJbyWfSGdNgR-8" edge="1">
          <mxGeometry width="50" height="50" relative="1" as="geometry">
            <mxPoint x="520" y="840" as="sourcePoint" />
            <mxPoint x="620" y="820" as="targetPoint" />
          </mxGeometry>
        </mxCell>
        <mxCell id="ZuteNeyAwJbyWfSGdNgR-30" value="" style="endArrow=classic;startArrow=classic;html=1;rounded=0;entryX=0.5;entryY=1;entryDx=0;entryDy=0;exitX=0.5;exitY=0;exitDx=0;exitDy=0;" parent="1" source="ZuteNeyAwJbyWfSGdNgR-2" target="ZuteNeyAwJbyWfSGdNgR-15" edge="1">
          <mxGeometry width="50" height="50" relative="1" as="geometry">
            <mxPoint x="290" y="850" as="sourcePoint" />
            <mxPoint x="340" y="800" as="targetPoint" />
          </mxGeometry>
        </mxCell>
        <mxCell id="ZuteNeyAwJbyWfSGdNgR-32" value="" style="endArrow=classic;startArrow=classic;html=1;rounded=0;exitX=1;exitY=0.5;exitDx=0;exitDy=0;entryX=0;entryY=0.5;entryDx=0;entryDy=0;" parent="1" source="ZuteNeyAwJbyWfSGdNgR-1" target="ZuteNeyAwJbyWfSGdNgR-4" edge="1">
          <mxGeometry width="50" height="50" relative="1" as="geometry">
            <mxPoint x="330" y="880" as="sourcePoint" />
            <mxPoint x="380" y="830" as="targetPoint" />
          </mxGeometry>
        </mxCell>
        <mxCell id="ZuteNeyAwJbyWfSGdNgR-33" value="" style="endArrow=classic;startArrow=classic;html=1;rounded=0;entryX=1;entryY=1;entryDx=0;entryDy=0;" parent="1" source="ZuteNeyAwJbyWfSGdNgR-2" target="ZuteNeyAwJbyWfSGdNgR-1" edge="1">
          <mxGeometry width="50" height="50" relative="1" as="geometry">
            <mxPoint x="310" y="1020" as="sourcePoint" />
            <mxPoint x="360" y="970" as="targetPoint" />
          </mxGeometry>
        </mxCell>
        <mxCell id="ZuteNeyAwJbyWfSGdNgR-34" value="" style="endArrow=classic;startArrow=classic;html=1;rounded=0;exitX=1;exitY=0;exitDx=0;exitDy=0;" parent="1" source="ZuteNeyAwJbyWfSGdNgR-2" target="ZuteNeyAwJbyWfSGdNgR-4" edge="1">
          <mxGeometry width="50" height="50" relative="1" as="geometry">
            <mxPoint x="530" y="1030" as="sourcePoint" />
            <mxPoint x="580" y="980" as="targetPoint" />
          </mxGeometry>
        </mxCell>
        <mxCell id="ZuteNeyAwJbyWfSGdNgR-36" value="" style="endArrow=classic;startArrow=classic;html=1;rounded=0;entryX=1;entryY=0.5;entryDx=0;entryDy=0;exitX=0;exitY=0.5;exitDx=0;exitDy=0;" parent="1" source="ZuteNeyAwJbyWfSGdNgR-6" target="ZuteNeyAwJbyWfSGdNgR-4" edge="1">
          <mxGeometry width="50" height="50" relative="1" as="geometry">
            <mxPoint y="830" as="sourcePoint" />
            <mxPoint x="50" y="780" as="targetPoint" />
          </mxGeometry>
        </mxCell>
        <mxCell id="ZuteNeyAwJbyWfSGdNgR-38" value="" style="endArrow=classic;html=1;rounded=0;exitX=0;exitY=0.5;exitDx=0;exitDy=0;entryX=1;entryY=0.5;entryDx=0;entryDy=0;" parent="1" source="ZuteNeyAwJbyWfSGdNgR-15" target="ZuteNeyAwJbyWfSGdNgR-14" edge="1">
          <mxGeometry width="50" height="50" relative="1" as="geometry">
            <mxPoint x="100" y="890" as="sourcePoint" />
            <mxPoint x="150" y="840" as="targetPoint" />
          </mxGeometry>
        </mxCell>
        <mxCell id="ZuteNeyAwJbyWfSGdNgR-40" value="" style="endArrow=classic;startArrow=classic;html=1;rounded=0;entryX=0.5;entryY=1;entryDx=0;entryDy=0;exitX=0.5;exitY=0;exitDx=0;exitDy=0;" parent="1" source="ZuteNeyAwJbyWfSGdNgR-1" target="ZuteNeyAwJbyWfSGdNgR-14" edge="1">
          <mxGeometry width="50" height="50" relative="1" as="geometry">
            <mxPoint x="90" y="850" as="sourcePoint" />
            <mxPoint x="140" y="800" as="targetPoint" />
          </mxGeometry>
        </mxCell>
        <mxCell id="ZuteNeyAwJbyWfSGdNgR-43" value="" style="endArrow=classic;html=1;rounded=0;exitX=0.775;exitY=0.075;exitDx=0;exitDy=0;exitPerimeter=0;entryX=0.25;entryY=0.938;entryDx=0;entryDy=0;entryPerimeter=0;" parent="1" source="ZuteNeyAwJbyWfSGdNgR-14" target="ZuteNeyAwJbyWfSGdNgR-16" edge="1">
          <mxGeometry width="50" height="50" relative="1" as="geometry">
            <mxPoint x="230" y="760" as="sourcePoint" />
            <mxPoint x="280" y="710" as="targetPoint" />
          </mxGeometry>
        </mxCell>
        <mxCell id="ZuteNeyAwJbyWfSGdNgR-44" value="" style="endArrow=classic;html=1;rounded=0;exitX=0;exitY=0;exitDx=0;exitDy=0;entryX=0.667;entryY=0.975;entryDx=0;entryDy=0;entryPerimeter=0;" parent="1" source="ZuteNeyAwJbyWfSGdNgR-15" target="ZuteNeyAwJbyWfSGdNgR-16" edge="1">
          <mxGeometry width="50" height="50" relative="1" as="geometry">
            <mxPoint x="20" y="770" as="sourcePoint" />
            <mxPoint x="70" y="720" as="targetPoint" />
          </mxGeometry>
        </mxCell>
        <mxCell id="ZuteNeyAwJbyWfSGdNgR-45" value="" style="endArrow=classic;html=1;rounded=0;exitX=0.408;exitY=0.013;exitDx=0;exitDy=0;exitPerimeter=0;entryX=0;entryY=1;entryDx=0;entryDy=0;" parent="1" source="ZuteNeyAwJbyWfSGdNgR-14" target="ZuteNeyAwJbyWfSGdNgR-19" edge="1">
          <mxGeometry width="50" height="50" relative="1" as="geometry">
            <mxPoint x="190" y="700" as="sourcePoint" />
            <mxPoint x="240" y="650" as="targetPoint" />
          </mxGeometry>
        </mxCell>
        <mxCell id="ZuteNeyAwJbyWfSGdNgR-46" value="" style="endArrow=classic;html=1;rounded=0;exitX=0.558;exitY=-0.025;exitDx=0;exitDy=0;exitPerimeter=0;entryX=1;entryY=1;entryDx=0;entryDy=0;" parent="1" source="ZuteNeyAwJbyWfSGdNgR-15" target="ZuteNeyAwJbyWfSGdNgR-19" edge="1">
          <mxGeometry width="50" height="50" relative="1" as="geometry">
            <mxPoint x="390" y="700" as="sourcePoint" />
            <mxPoint x="440" y="650" as="targetPoint" />
          </mxGeometry>
        </mxCell>
        <mxCell id="ZuteNeyAwJbyWfSGdNgR-48" value="" style="curved=1;endArrow=classic;html=1;rounded=0;exitX=1;exitY=0.5;exitDx=0;exitDy=0;" parent="1" source="ZuteNeyAwJbyWfSGdNgR-16" edge="1">
          <mxGeometry width="50" height="50" relative="1" as="geometry">
            <mxPoint x="380" y="570" as="sourcePoint" />
            <mxPoint x="530" y="870" as="targetPoint" />
            <Array as="points">
              <mxPoint x="550" y="670" />
            </Array>
          </mxGeometry>
        </mxCell>
        <mxCell id="ZuteNeyAwJbyWfSGdNgR-49" value="" style="curved=1;endArrow=classic;html=1;rounded=0;exitX=0;exitY=0.5;exitDx=0;exitDy=0;entryX=0;entryY=0;entryDx=0;entryDy=0;" parent="1" source="ZuteNeyAwJbyWfSGdNgR-19" target="ZuteNeyAwJbyWfSGdNgR-1" edge="1">
          <mxGeometry width="50" height="50" relative="1" as="geometry">
            <mxPoint x="50" y="770" as="sourcePoint" />
            <mxPoint x="100" y="720" as="targetPoint" />
            <Array as="points">
              <mxPoint x="140" y="640" />
              <mxPoint x="110" y="810" />
            </Array>
          </mxGeometry>
        </mxCell>
        <mxCell id="ZuteNeyAwJbyWfSGdNgR-50" value="state: magnetized" style="text;html=1;strokeColor=none;fillColor=none;align=center;verticalAlign=middle;whiteSpace=wrap;rounded=0;" parent="1" vertex="1">
          <mxGeometry x="370" y="1460" width="60" height="30" as="geometry" />
        </mxCell>
        <mxCell id="ZuteNeyAwJbyWfSGdNgR-51" value="" style="curved=1;endArrow=classic;html=1;rounded=0;exitX=0;exitY=1;exitDx=0;exitDy=0;entryX=0;entryY=0.5;entryDx=0;entryDy=0;" parent="1" source="ZuteNeyAwJbyWfSGdNgR-1" target="ZuteNeyAwJbyWfSGdNgR-5" edge="1">
          <mxGeometry width="50" height="50" relative="1" as="geometry">
            <mxPoint x="150" y="1150" as="sourcePoint" />
            <mxPoint x="200" y="1100" as="targetPoint" />
            <Array as="points">
              <mxPoint x="30" y="1180" />
            </Array>
          </mxGeometry>
        </mxCell>
        <mxCell id="ZuteNeyAwJbyWfSGdNgR-52" value="" style="curved=1;endArrow=classic;html=1;rounded=0;exitX=0.5;exitY=1;exitDx=0;exitDy=0;entryX=0;entryY=0.5;entryDx=0;entryDy=0;" parent="1" source="ZuteNeyAwJbyWfSGdNgR-2" target="ZuteNeyAwJbyWfSGdNgR-5" edge="1">
          <mxGeometry width="50" height="50" relative="1" as="geometry">
            <mxPoint x="250" y="960" as="sourcePoint" />
            <mxPoint x="460" y="1200" as="targetPoint" />
            <Array as="points">
              <mxPoint x="370" y="1160" />
            </Array>
          </mxGeometry>
        </mxCell>
        <mxCell id="ZuteNeyAwJbyWfSGdNgR-53" value="" style="endArrow=classic;startArrow=classic;html=1;rounded=0;entryX=0.358;entryY=0.975;entryDx=0;entryDy=0;exitX=0.5;exitY=0;exitDx=0;exitDy=0;entryPerimeter=0;" parent="1" source="ZuteNeyAwJbyWfSGdNgR-5" target="ZuteNeyAwJbyWfSGdNgR-4" edge="1">
          <mxGeometry width="50" height="50" relative="1" as="geometry">
            <mxPoint x="500" y="1060" as="sourcePoint" />
            <mxPoint x="550" y="1010" as="targetPoint" />
          </mxGeometry>
        </mxCell>
        <mxCell id="ZuteNeyAwJbyWfSGdNgR-54" value="" style="endArrow=classic;startArrow=classic;html=1;rounded=0;exitX=1;exitY=0.5;exitDx=0;exitDy=0;entryX=0;entryY=0.5;entryDx=0;entryDy=0;" parent="1" source="ZuteNeyAwJbyWfSGdNgR-18" target="ZuteNeyAwJbyWfSGdNgR-1" edge="1">
          <mxGeometry width="50" height="50" relative="1" as="geometry">
            <mxPoint x="20" y="940" as="sourcePoint" />
            <mxPoint x="70" y="890" as="targetPoint" />
          </mxGeometry>
        </mxCell>
        <mxCell id="ZuteNeyAwJbyWfSGdNgR-56" value="" style="endArrow=classic;html=1;rounded=0;exitX=0;exitY=0.5;exitDx=0;exitDy=0;entryX=0.967;entryY=0.725;entryDx=0;entryDy=0;entryPerimeter=0;" parent="1" source="ZuteNeyAwJbyWfSGdNgR-2" target="ZuteNeyAwJbyWfSGdNgR-17" edge="1">
          <mxGeometry width="50" height="50" relative="1" as="geometry">
            <mxPoint x="230" y="1220" as="sourcePoint" />
            <mxPoint x="280" y="1170" as="targetPoint" />
          </mxGeometry>
        </mxCell>
        <mxCell id="ZuteNeyAwJbyWfSGdNgR-57" value="" style="endArrow=classic;html=1;rounded=0;entryX=0.5;entryY=1;entryDx=0;entryDy=0;exitX=0.5;exitY=0;exitDx=0;exitDy=0;" parent="1" source="ZuteNeyAwJbyWfSGdNgR-17" target="ZuteNeyAwJbyWfSGdNgR-1" edge="1">
          <mxGeometry width="50" height="50" relative="1" as="geometry">
            <mxPoint x="180" y="1090" as="sourcePoint" />
            <mxPoint x="200" y="1010" as="targetPoint" />
          </mxGeometry>
        </mxCell>
        <mxCell id="ZuteNeyAwJbyWfSGdNgR-60" value="" style="curved=1;endArrow=classic;html=1;rounded=0;entryX=1;entryY=0.5;entryDx=0;entryDy=0;exitX=1;exitY=1;exitDx=0;exitDy=0;" parent="1" source="ZuteNeyAwJbyWfSGdNgR-4" target="ZuteNeyAwJbyWfSGdNgR-13" edge="1">
          <mxGeometry width="50" height="50" relative="1" as="geometry">
            <mxPoint x="561.96" y="961.04" as="sourcePoint" />
            <mxPoint x="550" y="1280" as="targetPoint" />
            <Array as="points">
              <mxPoint x="650" y="1080" />
              <mxPoint x="640" y="1290" />
            </Array>
          </mxGeometry>
        </mxCell>
        <mxCell id="ZuteNeyAwJbyWfSGdNgR-61" value="" style="curved=1;endArrow=classic;html=1;rounded=0;entryX=0.067;entryY=0.763;entryDx=0;entryDy=0;entryPerimeter=0;exitX=0;exitY=0;exitDx=0;exitDy=0;" parent="1" source="ZuteNeyAwJbyWfSGdNgR-13" target="ZuteNeyAwJbyWfSGdNgR-1" edge="1">
          <mxGeometry width="50" height="50" relative="1" as="geometry">
            <mxPoint x="340" y="1330" as="sourcePoint" />
            <mxPoint x="430" y="1170" as="targetPoint" />
            <Array as="points">
              <mxPoint x="-20" y="1140" />
            </Array>
          </mxGeometry>
        </mxCell>
        <mxCell id="ZuteNeyAwJbyWfSGdNgR-62" value="" style="curved=1;endArrow=classic;html=1;rounded=0;entryX=1;entryY=0.5;entryDx=0;entryDy=0;exitX=0;exitY=0.5;exitDx=0;exitDy=0;" parent="1" source="ZuteNeyAwJbyWfSGdNgR-13" target="ZuteNeyAwJbyWfSGdNgR-12" edge="1">
          <mxGeometry width="50" height="50" relative="1" as="geometry">
            <mxPoint x="427.57359312880726" y="1271.7157287525379" as="sourcePoint" />
            <mxPoint x="198.03999999999996" y="941.04" as="targetPoint" />
            <Array as="points">
              <mxPoint x="130" y="1160" />
              <mxPoint x="90" y="1090" />
            </Array>
          </mxGeometry>
        </mxCell>
        <mxCell id="ZuteNeyAwJbyWfSGdNgR-63" value="" style="endArrow=classic;startArrow=classic;html=1;rounded=0;entryX=-0.017;entryY=0.663;entryDx=0;entryDy=0;entryPerimeter=0;exitX=1;exitY=0;exitDx=0;exitDy=0;" parent="1" source="ZuteNeyAwJbyWfSGdNgR-12" target="ZuteNeyAwJbyWfSGdNgR-1" edge="1">
          <mxGeometry width="50" height="50" relative="1" as="geometry">
            <mxPoint x="70" y="1010" as="sourcePoint" />
            <mxPoint x="120" y="960" as="targetPoint" />
          </mxGeometry>
        </mxCell>
        <mxCell id="ZuteNeyAwJbyWfSGdNgR-64" value="" style="curved=1;endArrow=classic;html=1;rounded=0;exitX=0;exitY=1;exitDx=0;exitDy=0;entryX=0.5;entryY=1;entryDx=0;entryDy=0;" parent="1" source="ZuteNeyAwJbyWfSGdNgR-2" target="ZuteNeyAwJbyWfSGdNgR-12" edge="1">
          <mxGeometry width="50" height="50" relative="1" as="geometry">
            <mxPoint x="10" y="1280" as="sourcePoint" />
            <mxPoint x="60" y="1230" as="targetPoint" />
            <Array as="points">
              <mxPoint x="190" y="1230" />
              <mxPoint x="10" y="1230" />
            </Array>
          </mxGeometry>
        </mxCell>
        <mxCell id="ZuteNeyAwJbyWfSGdNgR-65" value="idle" style="ellipse;whiteSpace=wrap;html=1;" parent="1" vertex="1">
          <mxGeometry x="260" y="1600" width="120" height="80" as="geometry" />
        </mxCell>
        <mxCell id="ZuteNeyAwJbyWfSGdNgR-66" value="walk" style="ellipse;whiteSpace=wrap;html=1;" parent="1" vertex="1">
          <mxGeometry x="380" y="1550" width="120" height="80" as="geometry" />
        </mxCell>
        <mxCell id="ZuteNeyAwJbyWfSGdNgR-67" value="attack" style="ellipse;whiteSpace=wrap;html=1;" parent="1" vertex="1">
          <mxGeometry x="280" y="1714" width="120" height="80" as="geometry" />
        </mxCell>
        <mxCell id="86zAY_F4Fy-KE39VsVGR-2" value="Cross-Functional Flowchart" style="shape=table;childLayout=tableLayout;startSize=40;collapsible=0;recursiveResize=0;expand=0;fontSize=16;" parent="1" vertex="1">
          <mxGeometry y="1970" width="1418" height="440" as="geometry" />
        </mxCell>
        <mxCell id="86zAY_F4Fy-KE39VsVGR-3" value="Systems" style="shape=tableRow;horizontal=0;swimlaneHead=0;swimlaneBody=0;top=0;left=0;strokeColor=inherit;bottom=0;right=0;dropTarget=0;fontStyle=0;fillColor=none;points=[[0,0.5],[1,0.5]];portConstraint=eastwest;startSize=40;collapsible=0;recursiveResize=0;expand=0;fontSize=16;" parent="86zAY_F4Fy-KE39VsVGR-2" vertex="1">
          <mxGeometry y="40" width="1418" height="133" as="geometry" />
        </mxCell>
        <mxCell id="86zAY_F4Fy-KE39VsVGR-4" value="1.11 - 05.11" style="swimlane;swimlaneHead=0;swimlaneBody=0;fontStyle=0;strokeColor=inherit;connectable=0;fillColor=none;startSize=40;collapsible=0;recursiveResize=0;expand=0;fontSize=16;" parent="86zAY_F4Fy-KE39VsVGR-3" vertex="1">
          <mxGeometry x="40" width="197" height="133" as="geometry">
            <mxRectangle width="197" height="133" as="alternateBounds" />
          </mxGeometry>
        </mxCell>
        <mxCell id="86zAY_F4Fy-KE39VsVGR-15" value="Animations" style="text;html=1;align=center;verticalAlign=middle;resizable=0;points=[];autosize=1;strokeColor=none;fillColor=none;fontSize=16;" parent="86zAY_F4Fy-KE39VsVGR-4" vertex="1">
          <mxGeometry x="34" y="65" width="100" height="30" as="geometry" />
        </mxCell>
        <mxCell id="86zAY_F4Fy-KE39VsVGR-5" value="06.11-19.11" style="swimlane;swimlaneHead=0;swimlaneBody=0;fontStyle=0;strokeColor=inherit;connectable=0;fillColor=none;startSize=40;collapsible=0;recursiveResize=0;expand=0;fontSize=16;" parent="86zAY_F4Fy-KE39VsVGR-3" vertex="1">
          <mxGeometry x="237" width="196" height="133" as="geometry">
            <mxRectangle width="196" height="133" as="alternateBounds" />
          </mxGeometry>
        </mxCell>
        <mxCell id="86zAY_F4Fy-KE39VsVGR-16" value="Animationssystem&lt;br&gt;+&lt;br&gt;Player Character" style="text;html=1;align=center;verticalAlign=middle;resizable=0;points=[];autosize=1;strokeColor=none;fillColor=none;fontSize=16;" parent="86zAY_F4Fy-KE39VsVGR-5" vertex="1">
          <mxGeometry x="8" y="45" width="150" height="70" as="geometry" />
        </mxCell>
        <mxCell id="86zAY_F4Fy-KE39VsVGR-6" value="20.11-26.11" style="swimlane;swimlaneHead=0;swimlaneBody=0;fontStyle=0;strokeColor=inherit;connectable=0;fillColor=none;startSize=40;collapsible=0;recursiveResize=0;expand=0;fontSize=16;" parent="86zAY_F4Fy-KE39VsVGR-3" vertex="1">
          <mxGeometry x="433" width="197" height="133" as="geometry">
            <mxRectangle width="197" height="133" as="alternateBounds" />
          </mxGeometry>
        </mxCell>
        <mxCell id="86zAY_F4Fy-KE39VsVGR-19" value="first weapon System" style="text;html=1;align=center;verticalAlign=middle;resizable=0;points=[];autosize=1;strokeColor=none;fillColor=none;fontSize=16;" parent="86zAY_F4Fy-KE39VsVGR-6" vertex="1">
          <mxGeometry x="-1.5" y="65" width="170" height="30" as="geometry" />
        </mxCell>
        <mxCell id="86zAY_F4Fy-KE39VsVGR-20" value="27.11-10.12" style="swimlane;swimlaneHead=0;swimlaneBody=0;fontStyle=0;strokeColor=inherit;connectable=0;fillColor=none;startSize=40;collapsible=0;recursiveResize=0;expand=0;fontSize=16;" parent="86zAY_F4Fy-KE39VsVGR-3" vertex="1">
          <mxGeometry x="630" width="197" height="133" as="geometry">
            <mxRectangle width="197" height="133" as="alternateBounds" />
          </mxGeometry>
        </mxCell>
        <mxCell id="86zAY_F4Fy-KE39VsVGR-23" value="first enemy" style="text;html=1;align=center;verticalAlign=middle;resizable=0;points=[];autosize=1;strokeColor=none;fillColor=none;fontSize=16;" parent="86zAY_F4Fy-KE39VsVGR-20" vertex="1">
          <mxGeometry x="35" y="65" width="100" height="30" as="geometry" />
        </mxCell>
        <mxCell id="86zAY_F4Fy-KE39VsVGR-24" value="11.12-23.12" style="swimlane;swimlaneHead=0;swimlaneBody=0;fontStyle=0;strokeColor=inherit;connectable=0;fillColor=none;startSize=40;collapsible=0;recursiveResize=0;expand=0;fontSize=16;" parent="86zAY_F4Fy-KE39VsVGR-3" vertex="1">
          <mxGeometry x="827" width="197" height="133" as="geometry">
            <mxRectangle width="197" height="133" as="alternateBounds" />
          </mxGeometry>
        </mxCell>
        <mxCell id="86zAY_F4Fy-KE39VsVGR-27" value="first level with hookswing&lt;br&gt;and enemy" style="text;html=1;align=center;verticalAlign=middle;resizable=0;points=[];autosize=1;strokeColor=none;fillColor=none;fontSize=16;" parent="86zAY_F4Fy-KE39VsVGR-24" vertex="1">
          <mxGeometry x="-7" y="60" width="200" height="50" as="geometry" />
        </mxCell>
        <mxCell id="86zAY_F4Fy-KE39VsVGR-28" value="24.12 - 07.01" style="swimlane;swimlaneHead=0;swimlaneBody=0;fontStyle=0;strokeColor=inherit;connectable=0;fillColor=none;startSize=40;collapsible=0;recursiveResize=0;expand=0;fontSize=16;" parent="86zAY_F4Fy-KE39VsVGR-3" vertex="1">
          <mxGeometry x="1024" width="197" height="133" as="geometry">
            <mxRectangle width="197" height="133" as="alternateBounds" />
          </mxGeometry>
        </mxCell>
        <mxCell id="86zAY_F4Fy-KE39VsVGR-32" value="08.01" style="swimlane;swimlaneHead=0;swimlaneBody=0;fontStyle=0;strokeColor=inherit;connectable=0;fillColor=none;startSize=40;collapsible=0;recursiveResize=0;expand=0;fontSize=16;" parent="86zAY_F4Fy-KE39VsVGR-3" vertex="1">
          <mxGeometry x="1221" width="197" height="133" as="geometry">
            <mxRectangle width="197" height="133" as="alternateBounds" />
          </mxGeometry>
        </mxCell>
        <mxCell id="86zAY_F4Fy-KE39VsVGR-7" value="Doku" style="shape=tableRow;horizontal=0;swimlaneHead=0;swimlaneBody=0;top=0;left=0;strokeColor=inherit;bottom=0;right=0;dropTarget=0;fontStyle=0;fillColor=none;points=[[0,0.5],[1,0.5]];portConstraint=eastwest;startSize=40;collapsible=0;recursiveResize=0;expand=0;fontSize=16;" parent="86zAY_F4Fy-KE39VsVGR-2" vertex="1">
          <mxGeometry y="173" width="1418" height="134" as="geometry" />
        </mxCell>
        <mxCell id="86zAY_F4Fy-KE39VsVGR-8" value="" style="swimlane;swimlaneHead=0;swimlaneBody=0;fontStyle=0;connectable=0;strokeColor=inherit;fillColor=none;startSize=0;collapsible=0;recursiveResize=0;expand=0;fontSize=16;" parent="86zAY_F4Fy-KE39VsVGR-7" vertex="1">
          <mxGeometry x="40" width="197" height="134" as="geometry">
            <mxRectangle width="197" height="134" as="alternateBounds" />
          </mxGeometry>
        </mxCell>
        <mxCell id="86zAY_F4Fy-KE39VsVGR-9" value="" style="swimlane;swimlaneHead=0;swimlaneBody=0;fontStyle=0;connectable=0;strokeColor=inherit;fillColor=none;startSize=0;collapsible=0;recursiveResize=0;expand=0;fontSize=16;" parent="86zAY_F4Fy-KE39VsVGR-7" vertex="1">
          <mxGeometry x="237" width="196" height="134" as="geometry">
            <mxRectangle width="196" height="134" as="alternateBounds" />
          </mxGeometry>
        </mxCell>
        <mxCell id="86zAY_F4Fy-KE39VsVGR-10" value="" style="swimlane;swimlaneHead=0;swimlaneBody=0;fontStyle=0;connectable=0;strokeColor=inherit;fillColor=none;startSize=0;collapsible=0;recursiveResize=0;expand=0;fontSize=16;" parent="86zAY_F4Fy-KE39VsVGR-7" vertex="1">
          <mxGeometry x="433" width="197" height="134" as="geometry">
            <mxRectangle width="197" height="134" as="alternateBounds" />
          </mxGeometry>
        </mxCell>
        <mxCell id="86zAY_F4Fy-KE39VsVGR-21" style="swimlane;swimlaneHead=0;swimlaneBody=0;fontStyle=0;connectable=0;strokeColor=inherit;fillColor=none;startSize=0;collapsible=0;recursiveResize=0;expand=0;fontSize=16;" parent="86zAY_F4Fy-KE39VsVGR-7" vertex="1">
          <mxGeometry x="630" width="197" height="134" as="geometry">
            <mxRectangle width="197" height="134" as="alternateBounds" />
          </mxGeometry>
        </mxCell>
        <mxCell id="86zAY_F4Fy-KE39VsVGR-25" style="swimlane;swimlaneHead=0;swimlaneBody=0;fontStyle=0;connectable=0;strokeColor=inherit;fillColor=none;startSize=0;collapsible=0;recursiveResize=0;expand=0;fontSize=16;" parent="86zAY_F4Fy-KE39VsVGR-7" vertex="1">
          <mxGeometry x="827" width="197" height="134" as="geometry">
            <mxRectangle width="197" height="134" as="alternateBounds" />
          </mxGeometry>
        </mxCell>
        <mxCell id="86zAY_F4Fy-KE39VsVGR-29" style="swimlane;swimlaneHead=0;swimlaneBody=0;fontStyle=0;connectable=0;strokeColor=inherit;fillColor=none;startSize=0;collapsible=0;recursiveResize=0;expand=0;fontSize=16;" parent="86zAY_F4Fy-KE39VsVGR-7" vertex="1">
          <mxGeometry x="1024" width="197" height="134" as="geometry">
            <mxRectangle width="197" height="134" as="alternateBounds" />
          </mxGeometry>
        </mxCell>
        <mxCell id="86zAY_F4Fy-KE39VsVGR-33" style="swimlane;swimlaneHead=0;swimlaneBody=0;fontStyle=0;connectable=0;strokeColor=inherit;fillColor=none;startSize=0;collapsible=0;recursiveResize=0;expand=0;fontSize=16;" parent="86zAY_F4Fy-KE39VsVGR-7" vertex="1">
          <mxGeometry x="1221" width="197" height="134" as="geometry">
            <mxRectangle width="197" height="134" as="alternateBounds" />
          </mxGeometry>
        </mxCell>
        <mxCell id="86zAY_F4Fy-KE39VsVGR-11" value="etc" style="shape=tableRow;horizontal=0;swimlaneHead=0;swimlaneBody=0;top=0;left=0;strokeColor=inherit;bottom=0;right=0;dropTarget=0;fontStyle=0;fillColor=none;points=[[0,0.5],[1,0.5]];portConstraint=eastwest;startSize=40;collapsible=0;recursiveResize=0;expand=0;fontSize=16;" parent="86zAY_F4Fy-KE39VsVGR-2" vertex="1">
          <mxGeometry y="307" width="1418" height="133" as="geometry" />
        </mxCell>
        <mxCell id="86zAY_F4Fy-KE39VsVGR-12" value="" style="swimlane;swimlaneHead=0;swimlaneBody=0;fontStyle=0;connectable=0;strokeColor=inherit;fillColor=none;startSize=0;collapsible=0;recursiveResize=0;expand=0;fontSize=16;" parent="86zAY_F4Fy-KE39VsVGR-11" vertex="1">
          <mxGeometry x="40" width="197" height="133" as="geometry">
            <mxRectangle width="197" height="133" as="alternateBounds" />
          </mxGeometry>
        </mxCell>
        <mxCell id="86zAY_F4Fy-KE39VsVGR-13" value="" style="swimlane;swimlaneHead=0;swimlaneBody=0;fontStyle=0;connectable=0;strokeColor=inherit;fillColor=none;startSize=0;collapsible=0;recursiveResize=0;expand=0;fontSize=16;" parent="86zAY_F4Fy-KE39VsVGR-11" vertex="1">
          <mxGeometry x="237" width="196" height="133" as="geometry">
            <mxRectangle width="196" height="133" as="alternateBounds" />
          </mxGeometry>
        </mxCell>
        <mxCell id="86zAY_F4Fy-KE39VsVGR-35" value="level loading" style="text;html=1;align=center;verticalAlign=middle;resizable=0;points=[];autosize=1;strokeColor=none;fillColor=none;fontSize=16;" parent="86zAY_F4Fy-KE39VsVGR-13" vertex="1">
          <mxGeometry x="43" y="48" width="110" height="30" as="geometry" />
        </mxCell>
        <mxCell id="86zAY_F4Fy-KE39VsVGR-14" value="" style="swimlane;swimlaneHead=0;swimlaneBody=0;fontStyle=0;connectable=0;strokeColor=inherit;fillColor=none;startSize=0;collapsible=0;recursiveResize=0;expand=0;fontSize=16;" parent="86zAY_F4Fy-KE39VsVGR-11" vertex="1">
          <mxGeometry x="433" width="197" height="133" as="geometry">
            <mxRectangle width="197" height="133" as="alternateBounds" />
          </mxGeometry>
        </mxCell>
        <mxCell id="86zAY_F4Fy-KE39VsVGR-22" style="swimlane;swimlaneHead=0;swimlaneBody=0;fontStyle=0;connectable=0;strokeColor=inherit;fillColor=none;startSize=0;collapsible=0;recursiveResize=0;expand=0;fontSize=16;" parent="86zAY_F4Fy-KE39VsVGR-11" vertex="1">
          <mxGeometry x="630" width="197" height="133" as="geometry">
            <mxRectangle width="197" height="133" as="alternateBounds" />
          </mxGeometry>
        </mxCell>
        <mxCell id="86zAY_F4Fy-KE39VsVGR-26" style="swimlane;swimlaneHead=0;swimlaneBody=0;fontStyle=0;connectable=0;strokeColor=inherit;fillColor=none;startSize=0;collapsible=0;recursiveResize=0;expand=0;fontSize=16;" parent="86zAY_F4Fy-KE39VsVGR-11" vertex="1">
          <mxGeometry x="827" width="197" height="133" as="geometry">
            <mxRectangle width="197" height="133" as="alternateBounds" />
          </mxGeometry>
        </mxCell>
        <mxCell id="86zAY_F4Fy-KE39VsVGR-30" style="swimlane;swimlaneHead=0;swimlaneBody=0;fontStyle=0;connectable=0;strokeColor=inherit;fillColor=none;startSize=0;collapsible=0;recursiveResize=0;expand=0;fontSize=16;" parent="86zAY_F4Fy-KE39VsVGR-11" vertex="1">
          <mxGeometry x="1024" width="197" height="133" as="geometry">
            <mxRectangle width="197" height="133" as="alternateBounds" />
          </mxGeometry>
        </mxCell>
        <mxCell id="86zAY_F4Fy-KE39VsVGR-34" style="swimlane;swimlaneHead=0;swimlaneBody=0;fontStyle=0;connectable=0;strokeColor=inherit;fillColor=none;startSize=0;collapsible=0;recursiveResize=0;expand=0;fontSize=16;" parent="86zAY_F4Fy-KE39VsVGR-11" vertex="1">
          <mxGeometry x="1221" width="197" height="133" as="geometry">
            <mxRectangle width="197" height="133" as="alternateBounds" />
          </mxGeometry>
        </mxCell>
        <mxCell id="86zAY_F4Fy-KE39VsVGR-31" value="Pause" style="text;html=1;align=center;verticalAlign=middle;resizable=0;points=[];autosize=1;strokeColor=none;fillColor=none;fontSize=16;" parent="1" vertex="1">
          <mxGeometry x="1075" y="2085" width="70" height="30" as="geometry" />
        </mxCell>
        <mxCell id="v2-64KJp-YHIzRTaWcxG-1" style="edgeStyle=orthogonalEdgeStyle;rounded=0;hachureGap=4;orthogonalLoop=1;jettySize=auto;html=1;exitX=1;exitY=0.5;exitDx=0;exitDy=0;entryX=0;entryY=0.5;entryDx=0;entryDy=0;fontFamily=Architects Daughter;fontSource=https%3A%2F%2Ffonts.googleapis.com%2Fcss%3Ffamily%3DArchitects%2BDaughter;fontSize=16;shadow=0;" parent="1" source="LV0ptDyt47f4ZOMQPDEL-1" target="LV0ptDyt47f4ZOMQPDEL-8" edge="1">
          <mxGeometry relative="1" as="geometry" />
        </mxCell>
        <mxCell id="LV0ptDyt47f4ZOMQPDEL-1" value="&lt;b&gt;slide&lt;/b&gt;" style="rounded=1;whiteSpace=wrap;html=1;fontSize=16;gradientColor=#99CCFF;fillColor=#FFFFFF;shadow=0;glass=0;" parent="1" vertex="1">
          <mxGeometry x="39.25" y="2700" width="120" height="60" as="geometry" />
        </mxCell>
        <mxCell id="LV0ptDyt47f4ZOMQPDEL-2" value="slide or dodge" style="rhombus;whiteSpace=wrap;html=1;fontSize=16;" parent="1" vertex="1">
          <mxGeometry x="20" y="2880" width="180" height="180" as="geometry" />
        </mxCell>
        <mxCell id="LV0ptDyt47f4ZOMQPDEL-3" value="&lt;b&gt;dodge&lt;/b&gt;" style="rounded=1;whiteSpace=wrap;html=1;fontSize=16;gradientColor=#99CCFF;" parent="1" vertex="1">
          <mxGeometry x="30" y="3210" width="120" height="60" as="geometry" />
        </mxCell>
        <mxCell id="LV0ptDyt47f4ZOMQPDEL-5" value="&lt;b&gt;while dodging:&lt;br&gt;block?&lt;br&gt;jump?&lt;br&gt;attack?&lt;br&gt;crouch?&lt;br&gt;nothing?&lt;/b&gt;" style="rhombus;whiteSpace=wrap;html=1;fontSize=16;fillColor=#FFFFFF;gradientColor=#FFB570;" parent="1" vertex="1">
          <mxGeometry x="195" y="3133.75" width="230" height="212.5" as="geometry" />
        </mxCell>
        <mxCell id="LV0ptDyt47f4ZOMQPDEL-6" value="&lt;b&gt;block&lt;/b&gt;" style="rounded=1;whiteSpace=wrap;html=1;fontSize=16;gradientColor=#99CCFF;" parent="1" vertex="1">
          <mxGeometry x="691.5" y="3070" width="120" height="60" as="geometry" />
        </mxCell>
        <mxCell id="LV0ptDyt47f4ZOMQPDEL-7" value="&lt;b&gt;jump higher&lt;br&gt;(retain speed till grounded)&lt;/b&gt;" style="rounded=1;whiteSpace=wrap;html=1;fontSize=16;gradientColor=#99CCFF;" parent="1" vertex="1">
          <mxGeometry x="528.5" y="2560" width="120" height="60" as="geometry" />
        </mxCell>
        <mxCell id="LV0ptDyt47f4ZOMQPDEL-8" value="&lt;font style=&quot;font-size: 14px;&quot;&gt;&lt;b&gt;while sliding:&lt;br&gt;jump?&lt;br&gt;attack?&lt;br&gt;block?&lt;br&gt;crouch?&lt;br&gt;nothing?&lt;/b&gt;&lt;/font&gt;" style="rhombus;whiteSpace=wrap;html=1;fontSize=16;gradientColor=#FFB570;" parent="1" vertex="1">
          <mxGeometry x="200" y="2640" width="215.25" height="180" as="geometry" />
        </mxCell>
        <mxCell id="LV0ptDyt47f4ZOMQPDEL-9" value="Meteor attack" style="rounded=1;whiteSpace=wrap;html=1;fontSize=16;" parent="1" vertex="1">
          <mxGeometry x="1550" y="2850" width="120" height="60" as="geometry" />
        </mxCell>
        <mxCell id="LV0ptDyt47f4ZOMQPDEL-10" value="counter" style="rounded=1;whiteSpace=wrap;html=1;fontSize=16;" parent="1" vertex="1">
          <mxGeometry x="1534" y="2950" width="120" height="60" as="geometry" />
        </mxCell>
        <mxCell id="v2-64KJp-YHIzRTaWcxG-13" style="edgeStyle=orthogonalEdgeStyle;rounded=0;orthogonalLoop=1;jettySize=auto;html=1;exitX=1;exitY=0.5;exitDx=0;exitDy=0;entryX=0;entryY=0.5;entryDx=0;entryDy=0;" parent="1" source="LV0ptDyt47f4ZOMQPDEL-11" target="LV0ptDyt47f4ZOMQPDEL-12" edge="1">
          <mxGeometry relative="1" as="geometry" />
        </mxCell>
        <mxCell id="LV0ptDyt47f4ZOMQPDEL-11" value="&lt;b&gt;cancel slide animation&lt;/b&gt;" style="rounded=1;whiteSpace=wrap;html=1;fontSize=16;gradientColor=#E6E6E6;" parent="1" vertex="1">
          <mxGeometry x="528.5" y="2630" width="120" height="60" as="geometry" />
        </mxCell>
        <mxCell id="LV0ptDyt47f4ZOMQPDEL-12" value="&lt;b&gt;attack&lt;/b&gt;" style="rounded=1;whiteSpace=wrap;html=1;fontSize=16;gradientColor=#99CCFF;" parent="1" vertex="1">
          <mxGeometry x="678.5" y="2630" width="120" height="60" as="geometry" />
        </mxCell>
        <mxCell id="LV0ptDyt47f4ZOMQPDEL-13" value="jump while attacking?" style="rhombus;whiteSpace=wrap;html=1;fontSize=16;" parent="1" vertex="1">
          <mxGeometry x="1500" y="2540" width="120" height="115" as="geometry" />
        </mxCell>
        <mxCell id="LV0ptDyt47f4ZOMQPDEL-14" value="cancel attack animation" style="rounded=1;whiteSpace=wrap;html=1;fontSize=16;" parent="1" vertex="1">
          <mxGeometry x="1450" y="2680" width="120" height="60" as="geometry" />
        </mxCell>
        <mxCell id="LV0ptDyt47f4ZOMQPDEL-15" value="jump up attack" style="rounded=1;whiteSpace=wrap;html=1;fontSize=16;" parent="1" vertex="1">
          <mxGeometry x="1520" y="2770" width="120" height="60" as="geometry" />
        </mxCell>
        <mxCell id="v2-64KJp-YHIzRTaWcxG-12" style="edgeStyle=orthogonalEdgeStyle;rounded=0;orthogonalLoop=1;jettySize=auto;html=1;exitX=1;exitY=0.5;exitDx=0;exitDy=0;entryX=0;entryY=0.5;entryDx=0;entryDy=0;" parent="1" source="LV0ptDyt47f4ZOMQPDEL-16" target="LV0ptDyt47f4ZOMQPDEL-17" edge="1">
          <mxGeometry relative="1" as="geometry" />
        </mxCell>
        <mxCell id="LV0ptDyt47f4ZOMQPDEL-16" value="&lt;b&gt;playout the whole slide&lt;/b&gt;" style="rounded=1;whiteSpace=wrap;html=1;fontSize=16;gradientColor=#99CCFF;" parent="1" vertex="1">
          <mxGeometry x="528.5" y="2840" width="120" height="60" as="geometry" />
        </mxCell>
        <mxCell id="LV0ptDyt47f4ZOMQPDEL-17" value="&lt;b&gt;get slower in the end&lt;/b&gt;" style="rounded=1;whiteSpace=wrap;html=1;fontSize=16;gradientColor=#99CCFF;" parent="1" vertex="1">
          <mxGeometry x="678.5" y="2840" width="133" height="60" as="geometry" />
        </mxCell>
        <mxCell id="LV0ptDyt47f4ZOMQPDEL-20" value="&lt;b&gt;don&#39;t block&lt;/b&gt;" style="rounded=1;whiteSpace=wrap;html=1;fontSize=16;gradientColor=#E6E6E6;" parent="1" vertex="1">
          <mxGeometry x="528.5" y="2700" width="120" height="60" as="geometry" />
        </mxCell>
        <mxCell id="jr3rR2_mMYJbRNeasbv--7" style="edgeStyle=orthogonalEdgeStyle;rounded=0;orthogonalLoop=1;jettySize=auto;html=1;exitX=1;exitY=0.5;exitDx=0;exitDy=0;entryX=0;entryY=0.5;entryDx=0;entryDy=0;" parent="1" source="LV0ptDyt47f4ZOMQPDEL-25" target="LV0ptDyt47f4ZOMQPDEL-6" edge="1">
          <mxGeometry relative="1" as="geometry" />
        </mxCell>
        <mxCell id="LV0ptDyt47f4ZOMQPDEL-25" value="&lt;b&gt;cancel dodge animation&lt;/b&gt;" style="rounded=1;whiteSpace=wrap;html=1;fontSize=16;gradientColor=#E6E6E6;" parent="1" vertex="1">
          <mxGeometry x="528.5" y="3070" width="120" height="60" as="geometry" />
        </mxCell>
        <mxCell id="LV0ptDyt47f4ZOMQPDEL-26" value="&lt;b&gt;playout the whole dodge&lt;/b&gt;" style="rounded=1;whiteSpace=wrap;html=1;fontSize=16;fillColor=#FFFFFF;gradientColor=#99CCFF;" parent="1" vertex="1">
          <mxGeometry x="530" y="3350" width="120" height="60" as="geometry" />
        </mxCell>
        <mxCell id="LV0ptDyt47f4ZOMQPDEL-27" value="&lt;b&gt;don&#39;t jump&lt;/b&gt;" style="rounded=1;whiteSpace=wrap;html=1;fontSize=16;gradientColor=#E6E6E6;" parent="1" vertex="1">
          <mxGeometry x="530" y="3140" width="120" height="60" as="geometry" />
        </mxCell>
        <mxCell id="LV0ptDyt47f4ZOMQPDEL-28" value="&lt;b&gt;don&#39;t attack&lt;/b&gt;" style="rounded=1;whiteSpace=wrap;html=1;fontSize=16;gradientColor=#E6E6E6;" parent="1" vertex="1">
          <mxGeometry x="530" y="3210" width="120" height="60" as="geometry" />
        </mxCell>
        <mxCell id="jr3rR2_mMYJbRNeasbv--13" style="edgeStyle=orthogonalEdgeStyle;rounded=0;orthogonalLoop=1;jettySize=auto;html=1;exitX=1;exitY=0.5;exitDx=0;exitDy=0;entryX=0;entryY=0.5;entryDx=0;entryDy=0;" parent="1" source="LV0ptDyt47f4ZOMQPDEL-32" target="LV0ptDyt47f4ZOMQPDEL-33" edge="1">
          <mxGeometry relative="1" as="geometry" />
        </mxCell>
        <mxCell id="LV0ptDyt47f4ZOMQPDEL-32" value="&lt;b&gt;block&lt;/b&gt;" style="rounded=1;whiteSpace=wrap;html=1;fontSize=16;gradientColor=#99CCFF;" parent="1" vertex="1">
          <mxGeometry x="39.25" y="3690" width="120" height="60" as="geometry" />
        </mxCell>
        <mxCell id="LV0ptDyt47f4ZOMQPDEL-33" value="&lt;b&gt;parry?&lt;/b&gt;" style="rhombus;whiteSpace=wrap;html=1;fontSize=16;gradientColor=#FFB570;" parent="1" vertex="1">
          <mxGeometry x="185.25" y="3680" width="80" height="80" as="geometry" />
        </mxCell>
        <mxCell id="LV0ptDyt47f4ZOMQPDEL-34" value="&lt;b&gt;do parry&lt;/b&gt;" style="rounded=1;whiteSpace=wrap;html=1;fontSize=16;gradientColor=#99CCFF;" parent="1" vertex="1">
          <mxGeometry x="319.25" y="3620" width="120" height="60" as="geometry" />
        </mxCell>
        <mxCell id="jr3rR2_mMYJbRNeasbv--19" style="orthogonalLoop=1;jettySize=auto;html=1;exitX=1;exitY=0.5;exitDx=0;exitDy=0;entryX=0;entryY=0.5;entryDx=0;entryDy=0;strokeColor=default;rounded=0;" parent="1" source="LV0ptDyt47f4ZOMQPDEL-35" target="LV0ptDyt47f4ZOMQPDEL-39" edge="1">
          <mxGeometry relative="1" as="geometry" />
        </mxCell>
        <mxCell id="LV0ptDyt47f4ZOMQPDEL-35" value="&lt;b&gt;play out block animation&lt;/b&gt;" style="rounded=1;whiteSpace=wrap;html=1;fontSize=16;gradientColor=#99CCFF;" parent="1" vertex="1">
          <mxGeometry x="319.25" y="3740" width="120" height="60" as="geometry" />
        </mxCell>
        <mxCell id="jr3rR2_mMYJbRNeasbv--20" style="rounded=0;orthogonalLoop=1;jettySize=auto;html=1;exitX=1;exitY=0;exitDx=0;exitDy=0;entryX=0;entryY=0.5;entryDx=0;entryDy=0;" parent="1" source="LV0ptDyt47f4ZOMQPDEL-39" target="LV0ptDyt47f4ZOMQPDEL-43" edge="1">
          <mxGeometry relative="1" as="geometry" />
        </mxCell>
        <mxCell id="jr3rR2_mMYJbRNeasbv--25" value="dodge" style="edgeLabel;html=1;align=center;verticalAlign=middle;resizable=0;points=[];" parent="jr3rR2_mMYJbRNeasbv--20" vertex="1" connectable="0">
          <mxGeometry x="0.2597" y="-1" relative="1" as="geometry">
            <mxPoint x="-24" y="17" as="offset" />
          </mxGeometry>
        </mxCell>
        <mxCell id="jr3rR2_mMYJbRNeasbv--22" style="rounded=0;orthogonalLoop=1;jettySize=auto;html=1;exitX=1;exitY=0.5;exitDx=0;exitDy=0;" parent="1" source="LV0ptDyt47f4ZOMQPDEL-39" target="LV0ptDyt47f4ZOMQPDEL-40" edge="1">
          <mxGeometry relative="1" as="geometry" />
        </mxCell>
        <mxCell id="jr3rR2_mMYJbRNeasbv--27" value="attack" style="edgeLabel;html=1;align=center;verticalAlign=middle;resizable=0;points=[];" parent="jr3rR2_mMYJbRNeasbv--22" vertex="1" connectable="0">
          <mxGeometry x="-0.0027" y="-1" relative="1" as="geometry">
            <mxPoint x="-3" y="-1" as="offset" />
          </mxGeometry>
        </mxCell>
        <mxCell id="jr3rR2_mMYJbRNeasbv--24" style="rounded=0;orthogonalLoop=1;jettySize=auto;html=1;exitX=1;exitY=1;exitDx=0;exitDy=0;entryX=0;entryY=0.5;entryDx=0;entryDy=0;" parent="1" source="LV0ptDyt47f4ZOMQPDEL-39" target="LV0ptDyt47f4ZOMQPDEL-46" edge="1">
          <mxGeometry relative="1" as="geometry" />
        </mxCell>
        <mxCell id="jr3rR2_mMYJbRNeasbv--29" value="nothing" style="edgeLabel;html=1;align=center;verticalAlign=middle;resizable=0;points=[];" parent="jr3rR2_mMYJbRNeasbv--24" vertex="1" connectable="0">
          <mxGeometry x="0.0309" relative="1" as="geometry">
            <mxPoint x="-1" as="offset" />
          </mxGeometry>
        </mxCell>
        <mxCell id="LV0ptDyt47f4ZOMQPDEL-39" value="&lt;b&gt;while blocking:&lt;br&gt;dodge?&lt;br&gt;jump?&lt;br&gt;attack?&lt;br&gt;crouch?&lt;br&gt;nothing?&lt;/b&gt;" style="rhombus;whiteSpace=wrap;html=1;fontSize=16;gradientColor=#FFB570;" parent="1" vertex="1">
          <mxGeometry x="470" y="3665" width="246.25" height="210" as="geometry" />
        </mxCell>
        <mxCell id="LV0ptDyt47f4ZOMQPDEL-40" value="&lt;b&gt;don&#39;t attack&lt;/b&gt;" style="rounded=1;whiteSpace=wrap;html=1;fontSize=16;gradientColor=#E6E6E6;" parent="1" vertex="1">
          <mxGeometry x="810" y="3740" width="120" height="60" as="geometry" />
        </mxCell>
        <mxCell id="LV0ptDyt47f4ZOMQPDEL-41" value="&lt;b&gt;don&#39;t crouch&lt;/b&gt;" style="rounded=1;whiteSpace=wrap;html=1;fontSize=16;gradientColor=#E6E6E6;" parent="1" vertex="1">
          <mxGeometry x="810" y="3810" width="120" height="60" as="geometry" />
        </mxCell>
        <mxCell id="LV0ptDyt47f4ZOMQPDEL-42" value="&lt;b&gt;dodge&lt;/b&gt;" style="rounded=1;whiteSpace=wrap;html=1;fontSize=16;gradientColor=#99CCFF;" parent="1" vertex="1">
          <mxGeometry x="970" y="3600" width="120" height="60" as="geometry" />
        </mxCell>
        <mxCell id="jr3rR2_mMYJbRNeasbv--30" style="edgeStyle=orthogonalEdgeStyle;rounded=0;orthogonalLoop=1;jettySize=auto;html=1;exitX=1;exitY=0.5;exitDx=0;exitDy=0;entryX=0;entryY=0.5;entryDx=0;entryDy=0;" parent="1" source="LV0ptDyt47f4ZOMQPDEL-43" target="LV0ptDyt47f4ZOMQPDEL-42" edge="1">
          <mxGeometry relative="1" as="geometry" />
        </mxCell>
        <mxCell id="LV0ptDyt47f4ZOMQPDEL-43" value="&lt;b&gt;cancel block animation&lt;/b&gt;" style="rounded=1;whiteSpace=wrap;html=1;fontSize=16;gradientColor=#E6E6E6;" parent="1" vertex="1">
          <mxGeometry x="810" y="3600" width="120" height="60" as="geometry" />
        </mxCell>
        <mxCell id="jr3rR2_mMYJbRNeasbv--31" style="edgeStyle=orthogonalEdgeStyle;rounded=0;orthogonalLoop=1;jettySize=auto;html=1;exitX=1;exitY=0.5;exitDx=0;exitDy=0;entryX=0;entryY=0.5;entryDx=0;entryDy=0;" parent="1" source="LV0ptDyt47f4ZOMQPDEL-44" target="LV0ptDyt47f4ZOMQPDEL-45" edge="1">
          <mxGeometry relative="1" as="geometry" />
        </mxCell>
        <mxCell id="LV0ptDyt47f4ZOMQPDEL-44" value="&lt;b&gt;cancel block animation&lt;/b&gt;" style="rounded=1;whiteSpace=wrap;html=1;fontSize=16;gradientColor=#E6E6E6;" parent="1" vertex="1">
          <mxGeometry x="810" y="3670" width="120" height="60" as="geometry" />
        </mxCell>
        <mxCell id="LV0ptDyt47f4ZOMQPDEL-45" value="&lt;b&gt;jump&lt;/b&gt;" style="rounded=1;whiteSpace=wrap;html=1;fontSize=16;gradientColor=#99CCFF;" parent="1" vertex="1">
          <mxGeometry x="970" y="3670" width="120" height="60" as="geometry" />
        </mxCell>
        <mxCell id="LV0ptDyt47f4ZOMQPDEL-46" value="&lt;b&gt;play out whole block animation&lt;/b&gt;" style="rounded=1;whiteSpace=wrap;html=1;fontSize=16;gradientColor=#99CCFF;" parent="1" vertex="1">
          <mxGeometry x="810" y="3880" width="120" height="60" as="geometry" />
        </mxCell>
        <mxCell id="LV0ptDyt47f4ZOMQPDEL-47" value="&lt;b&gt;don&#39;t crouch&lt;/b&gt;" style="rounded=1;whiteSpace=wrap;html=1;fontSize=16;gradientColor=#E6E6E6;" parent="1" vertex="1">
          <mxGeometry x="528.5" y="2770" width="120" height="60" as="geometry" />
        </mxCell>
        <mxCell id="LV0ptDyt47f4ZOMQPDEL-48" value="&lt;b&gt;don&#39;t crouch&lt;/b&gt;" style="rounded=1;whiteSpace=wrap;html=1;fontSize=16;gradientColor=#E6E6E6;" parent="1" vertex="1">
          <mxGeometry x="530" y="3280" width="120" height="60" as="geometry" />
        </mxCell>
        <mxCell id="jr3rR2_mMYJbRNeasbv--32" style="rounded=0;orthogonalLoop=1;jettySize=auto;html=1;exitX=1;exitY=0.5;exitDx=0;exitDy=0;entryX=0;entryY=0.5;entryDx=0;entryDy=0;" parent="1" source="LV0ptDyt47f4ZOMQPDEL-49" target="LV0ptDyt47f4ZOMQPDEL-50" edge="1">
          <mxGeometry relative="1" as="geometry" />
        </mxCell>
        <mxCell id="LV0ptDyt47f4ZOMQPDEL-49" value="&lt;b&gt;crouch&lt;/b&gt;" style="rounded=1;whiteSpace=wrap;html=1;fontSize=16;gradientColor=#99CCFF;" parent="1" vertex="1">
          <mxGeometry x="20" y="4265" width="120" height="60" as="geometry" />
        </mxCell>
        <mxCell id="LV0ptDyt47f4ZOMQPDEL-50" value="&lt;b&gt;while crouching:&lt;br&gt;dodge?&lt;br&gt;jump?&lt;br&gt;attack?&lt;br&gt;forward+jump?&lt;br&gt;uncrouch?&lt;br&gt;crouch?&lt;/b&gt;" style="rhombus;whiteSpace=wrap;html=1;fontSize=16;gradientColor=#FFB570;" parent="1" vertex="1">
          <mxGeometry x="230" y="4160" width="250" height="270" as="geometry" />
        </mxCell>
        <mxCell id="LV0ptDyt47f4ZOMQPDEL-51" value="&lt;b&gt;longjump&lt;/b&gt;" style="rounded=1;whiteSpace=wrap;html=1;fontSize=16;gradientColor=#99CCFF;" parent="1" vertex="1">
          <mxGeometry x="610" y="4300" width="120" height="60" as="geometry" />
        </mxCell>
        <mxCell id="LV0ptDyt47f4ZOMQPDEL-52" value="&lt;b&gt;slide&lt;/b&gt;" style="rounded=1;whiteSpace=wrap;html=1;fontSize=16;gradientColor=#99CCFF;" parent="1" vertex="1">
          <mxGeometry x="610" y="4050" width="120" height="60" as="geometry" />
        </mxCell>
        <mxCell id="LV0ptDyt47f4ZOMQPDEL-53" value="&lt;b&gt;high jump&lt;/b&gt;" style="rounded=1;whiteSpace=wrap;html=1;fontSize=16;gradientColor=#99CCFF;" parent="1" vertex="1">
          <mxGeometry x="610" y="4120" width="120" height="60" as="geometry" />
        </mxCell>
        <mxCell id="LV0ptDyt47f4ZOMQPDEL-54" value="&lt;b&gt;don&#39;t&amp;nbsp; attack&lt;/b&gt;" style="rounded=1;whiteSpace=wrap;html=1;fontSize=16;gradientColor=#E6E6E6;" parent="1" vertex="1">
          <mxGeometry x="610" y="4200" width="120" height="60" as="geometry" />
        </mxCell>
        <mxCell id="LV0ptDyt47f4ZOMQPDEL-55" value="&lt;b&gt;stand up/idle&lt;/b&gt;" style="rounded=1;whiteSpace=wrap;html=1;fontSize=16;gradientColor=#99CCFF;" parent="1" vertex="1">
          <mxGeometry x="610" y="4390" width="120" height="60" as="geometry" />
        </mxCell>
        <mxCell id="LV0ptDyt47f4ZOMQPDEL-56" value="&lt;b&gt;nothing&lt;/b&gt;" style="rounded=1;whiteSpace=wrap;html=1;fontSize=16;gradientColor=#E6E6E6;" parent="1" vertex="1">
          <mxGeometry x="610" y="4480" width="120" height="60" as="geometry" />
        </mxCell>
        <mxCell id="LV0ptDyt47f4ZOMQPDEL-57" value="&lt;b&gt;hold crouch to crouch&lt;/b&gt;" style="text;html=1;strokeColor=none;fillColor=none;align=center;verticalAlign=middle;whiteSpace=wrap;rounded=0;fontSize=16;" parent="1" vertex="1">
          <mxGeometry x="-15" y="4230" width="215" height="30" as="geometry" />
        </mxCell>
        <mxCell id="LV0ptDyt47f4ZOMQPDEL-58" value="melee attack 1" style="rounded=1;whiteSpace=wrap;html=1;fontSize=16;" parent="1" vertex="1">
          <mxGeometry x="110" y="6080" width="120" height="60" as="geometry" />
        </mxCell>
        <mxCell id="LV0ptDyt47f4ZOMQPDEL-59" value="ranged attack" style="rounded=1;whiteSpace=wrap;html=1;fontSize=16;" parent="1" vertex="1">
          <mxGeometry x="140" y="6480" width="120" height="60" as="geometry" />
        </mxCell>
        <mxCell id="LV0ptDyt47f4ZOMQPDEL-60" value="" style="triangle;whiteSpace=wrap;html=1;fontSize=16;" parent="1" vertex="1">
          <mxGeometry x="320" y="6070" width="60" height="80" as="geometry" />
        </mxCell>
        <mxCell id="LV0ptDyt47f4ZOMQPDEL-61" value="melee attack 2" style="rounded=1;whiteSpace=wrap;html=1;fontSize=16;" parent="1" vertex="1">
          <mxGeometry x="450" y="6080" width="120" height="60" as="geometry" />
        </mxCell>
        <mxCell id="LV0ptDyt47f4ZOMQPDEL-62" value="" style="triangle;whiteSpace=wrap;html=1;fontSize=16;" parent="1" vertex="1">
          <mxGeometry x="690" y="6070" width="60" height="80" as="geometry" />
        </mxCell>
        <mxCell id="LV0ptDyt47f4ZOMQPDEL-63" value="melee attack 3" style="rounded=1;whiteSpace=wrap;html=1;fontSize=16;" parent="1" vertex="1">
          <mxGeometry x="820" y="6080" width="120" height="60" as="geometry" />
        </mxCell>
        <mxCell id="LV0ptDyt47f4ZOMQPDEL-64" value="while attacking:" style="rounded=1;whiteSpace=wrap;html=1;fontSize=16;" parent="1" vertex="1">
          <mxGeometry x="180" y="6250" width="150" height="60" as="geometry" />
        </mxCell>
        <mxCell id="LV0ptDyt47f4ZOMQPDEL-65" value="" style="endArrow=none;html=1;rounded=0;fontSize=12;startSize=8;endSize=8;curved=1;exitX=1;exitY=0.5;exitDx=0;exitDy=0;entryX=0;entryY=0.5;entryDx=0;entryDy=0;" parent="1" source="LV0ptDyt47f4ZOMQPDEL-64" target="LV0ptDyt47f4ZOMQPDEL-68" edge="1">
          <mxGeometry width="50" height="50" relative="1" as="geometry">
            <mxPoint x="380" y="6310" as="sourcePoint" />
            <mxPoint x="440" y="6280" as="targetPoint" />
          </mxGeometry>
        </mxCell>
        <mxCell id="LV0ptDyt47f4ZOMQPDEL-66" value="jump" style="text;html=1;align=center;verticalAlign=middle;resizable=0;points=[];autosize=1;strokeColor=none;fillColor=none;fontSize=16;" parent="1" vertex="1">
          <mxGeometry x="360" y="6235" width="60" height="30" as="geometry" />
        </mxCell>
        <mxCell id="LV0ptDyt47f4ZOMQPDEL-68" value="jump up attack" style="rounded=1;whiteSpace=wrap;html=1;fontSize=16;" parent="1" vertex="1">
          <mxGeometry x="460" y="6250" width="120" height="60" as="geometry" />
        </mxCell>
        <mxCell id="LV0ptDyt47f4ZOMQPDEL-69" value="yes" style="rounded=1;whiteSpace=wrap;html=1;fontSize=16;" parent="1" vertex="1">
          <mxGeometry x="85.75" y="6570" width="120" height="60" as="geometry" />
        </mxCell>
        <mxCell id="LV0ptDyt47f4ZOMQPDEL-80" style="edgeStyle=none;curved=1;rounded=0;orthogonalLoop=1;jettySize=auto;html=1;exitX=1;exitY=0;exitDx=0;exitDy=0;entryX=0;entryY=1;entryDx=0;entryDy=0;fontSize=12;startSize=8;endSize=8;" parent="1" source="LV0ptDyt47f4ZOMQPDEL-70" target="LV0ptDyt47f4ZOMQPDEL-79" edge="1">
          <mxGeometry relative="1" as="geometry" />
        </mxCell>
        <mxCell id="LV0ptDyt47f4ZOMQPDEL-84" style="edgeStyle=none;curved=1;rounded=0;orthogonalLoop=1;jettySize=auto;html=1;exitX=0.5;exitY=1;exitDx=0;exitDy=0;entryX=0.5;entryY=0;entryDx=0;entryDy=0;fontSize=12;startSize=8;endSize=8;" parent="1" source="LV0ptDyt47f4ZOMQPDEL-70" target="LV0ptDyt47f4ZOMQPDEL-74" edge="1">
          <mxGeometry relative="1" as="geometry" />
        </mxCell>
        <mxCell id="LV0ptDyt47f4ZOMQPDEL-85" style="edgeStyle=none;curved=1;rounded=0;orthogonalLoop=1;jettySize=auto;html=1;exitX=0;exitY=0.5;exitDx=0;exitDy=0;entryX=1;entryY=0.5;entryDx=0;entryDy=0;fontSize=12;startSize=8;endSize=8;" parent="1" source="LV0ptDyt47f4ZOMQPDEL-70" target="LV0ptDyt47f4ZOMQPDEL-75" edge="1">
          <mxGeometry relative="1" as="geometry" />
        </mxCell>
        <mxCell id="LV0ptDyt47f4ZOMQPDEL-86" style="edgeStyle=none;curved=1;rounded=0;orthogonalLoop=1;jettySize=auto;html=1;exitX=1;exitY=0.5;exitDx=0;exitDy=0;fontSize=12;startSize=8;endSize=8;" parent="1" source="LV0ptDyt47f4ZOMQPDEL-70" target="LV0ptDyt47f4ZOMQPDEL-73" edge="1">
          <mxGeometry relative="1" as="geometry" />
        </mxCell>
        <mxCell id="LV0ptDyt47f4ZOMQPDEL-87" style="edgeStyle=none;curved=1;rounded=0;orthogonalLoop=1;jettySize=auto;html=1;exitX=0.5;exitY=0;exitDx=0;exitDy=0;entryX=0.5;entryY=1;entryDx=0;entryDy=0;fontSize=12;startSize=8;endSize=8;" parent="1" source="LV0ptDyt47f4ZOMQPDEL-70" target="LV0ptDyt47f4ZOMQPDEL-71" edge="1">
          <mxGeometry relative="1" as="geometry" />
        </mxCell>
        <mxCell id="LV0ptDyt47f4ZOMQPDEL-70" value="idle" style="rounded=1;whiteSpace=wrap;html=1;fontSize=16;gradientColor=#FFFFCC;" parent="1" vertex="1">
          <mxGeometry x="380.75" y="6800" width="120" height="60" as="geometry" />
        </mxCell>
        <mxCell id="LV0ptDyt47f4ZOMQPDEL-83" style="edgeStyle=none;curved=1;rounded=0;orthogonalLoop=1;jettySize=auto;html=1;exitX=1;exitY=0.5;exitDx=0;exitDy=0;entryX=0;entryY=0.5;entryDx=0;entryDy=0;fontSize=12;startSize=8;endSize=8;" parent="1" source="LV0ptDyt47f4ZOMQPDEL-71" target="LV0ptDyt47f4ZOMQPDEL-79" edge="1">
          <mxGeometry relative="1" as="geometry" />
        </mxCell>
        <mxCell id="LV0ptDyt47f4ZOMQPDEL-88" style="edgeStyle=none;curved=1;rounded=0;orthogonalLoop=1;jettySize=auto;html=1;exitX=0.5;exitY=0;exitDx=0;exitDy=0;entryX=0.5;entryY=1;entryDx=0;entryDy=0;fontSize=12;startSize=8;endSize=8;" parent="1" source="LV0ptDyt47f4ZOMQPDEL-71" target="LV0ptDyt47f4ZOMQPDEL-77" edge="1">
          <mxGeometry relative="1" as="geometry" />
        </mxCell>
        <mxCell id="LV0ptDyt47f4ZOMQPDEL-71" value="walk/run" style="rounded=1;whiteSpace=wrap;html=1;fontSize=16;gradientColor=#99CCFF;" parent="1" vertex="1">
          <mxGeometry x="380.75" y="6670" width="120" height="60" as="geometry" />
        </mxCell>
        <mxCell id="LV0ptDyt47f4ZOMQPDEL-81" style="edgeStyle=none;curved=1;rounded=0;orthogonalLoop=1;jettySize=auto;html=1;exitX=0.5;exitY=0;exitDx=0;exitDy=0;entryX=0.5;entryY=1;entryDx=0;entryDy=0;fontSize=12;startSize=8;endSize=8;" parent="1" source="LV0ptDyt47f4ZOMQPDEL-73" target="LV0ptDyt47f4ZOMQPDEL-79" edge="1">
          <mxGeometry relative="1" as="geometry" />
        </mxCell>
        <mxCell id="LV0ptDyt47f4ZOMQPDEL-89" style="edgeStyle=none;curved=1;rounded=0;orthogonalLoop=1;jettySize=auto;html=1;exitX=1;exitY=0.5;exitDx=0;exitDy=0;entryX=0;entryY=0.5;entryDx=0;entryDy=0;fontSize=12;startSize=8;endSize=8;" parent="1" source="LV0ptDyt47f4ZOMQPDEL-73" target="LV0ptDyt47f4ZOMQPDEL-78" edge="1">
          <mxGeometry relative="1" as="geometry" />
        </mxCell>
        <mxCell id="LV0ptDyt47f4ZOMQPDEL-73" value="crouch" style="rounded=1;whiteSpace=wrap;html=1;fontSize=16;gradientColor=#99CCFF;" parent="1" vertex="1">
          <mxGeometry x="570.75" y="6800" width="120" height="60" as="geometry" />
        </mxCell>
        <mxCell id="LV0ptDyt47f4ZOMQPDEL-74" value="attack" style="rounded=1;whiteSpace=wrap;html=1;fontSize=16;gradientColor=#99CCFF;" parent="1" vertex="1">
          <mxGeometry x="380.75" y="6920" width="120" height="60" as="geometry" />
        </mxCell>
        <mxCell id="jr3rR2_mMYJbRNeasbv--86" style="rounded=0;orthogonalLoop=1;jettySize=auto;html=1;exitX=1;exitY=0;exitDx=0;exitDy=0;entryX=0;entryY=0.75;entryDx=0;entryDy=0;" parent="1" source="LV0ptDyt47f4ZOMQPDEL-75" target="LV0ptDyt47f4ZOMQPDEL-79" edge="1">
          <mxGeometry relative="1" as="geometry" />
        </mxCell>
        <mxCell id="jr3rR2_mMYJbRNeasbv--88" style="rounded=0;orthogonalLoop=1;jettySize=auto;html=1;exitX=0.5;exitY=0;exitDx=0;exitDy=0;entryX=0;entryY=0.5;entryDx=0;entryDy=0;" parent="1" source="LV0ptDyt47f4ZOMQPDEL-75" target="LV0ptDyt47f4ZOMQPDEL-77" edge="1">
          <mxGeometry relative="1" as="geometry" />
        </mxCell>
        <mxCell id="LV0ptDyt47f4ZOMQPDEL-75" value="defend/parry" style="rounded=1;whiteSpace=wrap;html=1;fontSize=16;gradientColor=#99CCFF;" parent="1" vertex="1">
          <mxGeometry x="200.75" y="6800" width="120" height="60" as="geometry" />
        </mxCell>
        <mxCell id="LV0ptDyt47f4ZOMQPDEL-77" value="dodge" style="rounded=1;whiteSpace=wrap;html=1;fontSize=16;gradientColor=#99CCFF;" parent="1" vertex="1">
          <mxGeometry x="380.75" y="6560" width="120" height="60" as="geometry" />
        </mxCell>
        <mxCell id="LV0ptDyt47f4ZOMQPDEL-82" style="edgeStyle=none;curved=1;rounded=0;orthogonalLoop=1;jettySize=auto;html=1;exitX=0;exitY=0;exitDx=0;exitDy=0;entryX=1;entryY=1;entryDx=0;entryDy=0;fontSize=12;startSize=8;endSize=8;" parent="1" source="LV0ptDyt47f4ZOMQPDEL-78" target="LV0ptDyt47f4ZOMQPDEL-79" edge="1">
          <mxGeometry relative="1" as="geometry" />
        </mxCell>
        <mxCell id="jr3rR2_mMYJbRNeasbv--89" style="rounded=0;orthogonalLoop=1;jettySize=auto;html=1;exitX=0;exitY=1;exitDx=0;exitDy=0;entryX=1;entryY=0.5;entryDx=0;entryDy=0;" parent="1" source="LV0ptDyt47f4ZOMQPDEL-78" target="LV0ptDyt47f4ZOMQPDEL-74" edge="1">
          <mxGeometry relative="1" as="geometry" />
        </mxCell>
        <mxCell id="LV0ptDyt47f4ZOMQPDEL-78" value="slide" style="rounded=1;whiteSpace=wrap;html=1;fontSize=16;gradientColor=#99CCFF;" parent="1" vertex="1">
          <mxGeometry x="760.75" y="6800" width="120" height="60" as="geometry" />
        </mxCell>
        <mxCell id="LV0ptDyt47f4ZOMQPDEL-79" value="jump" style="rounded=1;whiteSpace=wrap;html=1;fontSize=16;gradientColor=#99CCFF;" parent="1" vertex="1">
          <mxGeometry x="570.75" y="6670" width="120" height="60" as="geometry" />
        </mxCell>
        <mxCell id="v2-64KJp-YHIzRTaWcxG-2" value="" style="endArrow=classic;html=1;rounded=0;exitX=1;exitY=0;exitDx=0;exitDy=0;entryX=0;entryY=0.5;entryDx=0;entryDy=0;" parent="1" source="LV0ptDyt47f4ZOMQPDEL-8" target="LV0ptDyt47f4ZOMQPDEL-7" edge="1">
          <mxGeometry width="50" height="50" relative="1" as="geometry">
            <mxPoint x="345.25" y="2640" as="sourcePoint" />
            <mxPoint x="395.25" y="2590" as="targetPoint" />
          </mxGeometry>
        </mxCell>
        <mxCell id="v2-64KJp-YHIzRTaWcxG-10" value="jump" style="edgeLabel;html=1;align=center;verticalAlign=middle;resizable=0;points=[];" parent="v2-64KJp-YHIzRTaWcxG-2" vertex="1" connectable="0">
          <mxGeometry x="-0.0236" y="2" relative="1" as="geometry">
            <mxPoint as="offset" />
          </mxGeometry>
        </mxCell>
        <mxCell id="v2-64KJp-YHIzRTaWcxG-3" value="" style="endArrow=classic;html=1;rounded=0;exitX=0.879;exitY=0.372;exitDx=0;exitDy=0;entryX=0;entryY=0.5;entryDx=0;entryDy=0;exitPerimeter=0;" parent="1" source="LV0ptDyt47f4ZOMQPDEL-8" target="LV0ptDyt47f4ZOMQPDEL-11" edge="1">
          <mxGeometry width="50" height="50" relative="1" as="geometry">
            <mxPoint x="265.25" y="2940" as="sourcePoint" />
            <mxPoint x="315.25" y="2890" as="targetPoint" />
          </mxGeometry>
        </mxCell>
        <mxCell id="v2-64KJp-YHIzRTaWcxG-9" value="attack" style="edgeLabel;html=1;align=center;verticalAlign=middle;resizable=0;points=[];" parent="v2-64KJp-YHIzRTaWcxG-3" vertex="1" connectable="0">
          <mxGeometry x="-0.1039" y="-1" relative="1" as="geometry">
            <mxPoint as="offset" />
          </mxGeometry>
        </mxCell>
        <mxCell id="v2-64KJp-YHIzRTaWcxG-4" value="" style="endArrow=classic;html=1;rounded=0;exitX=1;exitY=0.5;exitDx=0;exitDy=0;entryX=0;entryY=0.5;entryDx=0;entryDy=0;" parent="1" source="LV0ptDyt47f4ZOMQPDEL-8" target="LV0ptDyt47f4ZOMQPDEL-20" edge="1">
          <mxGeometry width="50" height="50" relative="1" as="geometry">
            <mxPoint x="390" y="2890" as="sourcePoint" />
            <mxPoint x="440" y="2840" as="targetPoint" />
          </mxGeometry>
        </mxCell>
        <mxCell id="v2-64KJp-YHIzRTaWcxG-8" value="block" style="edgeLabel;html=1;align=center;verticalAlign=middle;resizable=0;points=[];" parent="v2-64KJp-YHIzRTaWcxG-4" vertex="1" connectable="0">
          <mxGeometry x="-0.245" y="4" relative="1" as="geometry">
            <mxPoint as="offset" />
          </mxGeometry>
        </mxCell>
        <mxCell id="v2-64KJp-YHIzRTaWcxG-5" value="" style="endArrow=classic;html=1;rounded=0;exitX=0.839;exitY=0.661;exitDx=0;exitDy=0;exitPerimeter=0;entryX=0;entryY=0.5;entryDx=0;entryDy=0;" parent="1" source="LV0ptDyt47f4ZOMQPDEL-8" target="LV0ptDyt47f4ZOMQPDEL-47" edge="1">
          <mxGeometry width="50" height="50" relative="1" as="geometry">
            <mxPoint x="380" y="2900" as="sourcePoint" />
            <mxPoint x="430" y="2850" as="targetPoint" />
          </mxGeometry>
        </mxCell>
        <mxCell id="v2-64KJp-YHIzRTaWcxG-7" value="crouch" style="edgeLabel;html=1;align=center;verticalAlign=middle;resizable=0;points=[];" parent="v2-64KJp-YHIzRTaWcxG-5" vertex="1" connectable="0">
          <mxGeometry x="-0.059" y="-2" relative="1" as="geometry">
            <mxPoint as="offset" />
          </mxGeometry>
        </mxCell>
        <mxCell id="v2-64KJp-YHIzRTaWcxG-6" value="nothing" style="endArrow=classic;html=1;rounded=0;exitX=1;exitY=1;exitDx=0;exitDy=0;entryX=0;entryY=0.5;entryDx=0;entryDy=0;" parent="1" source="LV0ptDyt47f4ZOMQPDEL-8" target="LV0ptDyt47f4ZOMQPDEL-16" edge="1">
          <mxGeometry width="50" height="50" relative="1" as="geometry">
            <mxPoint x="380" y="2910" as="sourcePoint" />
            <mxPoint x="430" y="2860" as="targetPoint" />
          </mxGeometry>
        </mxCell>
        <mxCell id="jr3rR2_mMYJbRNeasbv--1" value="" style="endArrow=classic;html=1;rounded=0;exitX=1;exitY=0.5;exitDx=0;exitDy=0;entryX=0;entryY=0.5;entryDx=0;entryDy=0;" parent="1" source="LV0ptDyt47f4ZOMQPDEL-3" target="LV0ptDyt47f4ZOMQPDEL-5" edge="1">
          <mxGeometry width="50" height="50" relative="1" as="geometry">
            <mxPoint x="440" y="3150" as="sourcePoint" />
            <mxPoint x="490" y="3100" as="targetPoint" />
          </mxGeometry>
        </mxCell>
        <mxCell id="jr3rR2_mMYJbRNeasbv--2" value="" style="endArrow=classic;html=1;rounded=0;exitX=1;exitY=0;exitDx=0;exitDy=0;entryX=0;entryY=0.5;entryDx=0;entryDy=0;" parent="1" source="LV0ptDyt47f4ZOMQPDEL-5" target="LV0ptDyt47f4ZOMQPDEL-25" edge="1">
          <mxGeometry width="50" height="50" relative="1" as="geometry">
            <mxPoint x="410" y="3170" as="sourcePoint" />
            <mxPoint x="460" y="3120" as="targetPoint" />
          </mxGeometry>
        </mxCell>
        <mxCell id="jr3rR2_mMYJbRNeasbv--8" value="block" style="edgeLabel;html=1;align=center;verticalAlign=middle;resizable=0;points=[];" parent="jr3rR2_mMYJbRNeasbv--2" vertex="1" connectable="0">
          <mxGeometry x="0.0186" y="5" relative="1" as="geometry">
            <mxPoint as="offset" />
          </mxGeometry>
        </mxCell>
        <mxCell id="jr3rR2_mMYJbRNeasbv--3" value="" style="endArrow=classic;html=1;rounded=0;exitX=0.865;exitY=0.368;exitDx=0;exitDy=0;exitPerimeter=0;entryX=0;entryY=0.5;entryDx=0;entryDy=0;" parent="1" source="LV0ptDyt47f4ZOMQPDEL-5" target="LV0ptDyt47f4ZOMQPDEL-27" edge="1">
          <mxGeometry width="50" height="50" relative="1" as="geometry">
            <mxPoint x="430" y="3220" as="sourcePoint" />
            <mxPoint x="490" y="3180" as="targetPoint" />
          </mxGeometry>
        </mxCell>
        <mxCell id="jr3rR2_mMYJbRNeasbv--9" value="jump" style="edgeLabel;html=1;align=center;verticalAlign=middle;resizable=0;points=[];" parent="jr3rR2_mMYJbRNeasbv--3" vertex="1" connectable="0">
          <mxGeometry x="-0.008" y="-2" relative="1" as="geometry">
            <mxPoint as="offset" />
          </mxGeometry>
        </mxCell>
        <mxCell id="jr3rR2_mMYJbRNeasbv--4" value="" style="endArrow=classic;html=1;rounded=0;exitX=1;exitY=0.5;exitDx=0;exitDy=0;entryX=0;entryY=0.5;entryDx=0;entryDy=0;" parent="1" source="LV0ptDyt47f4ZOMQPDEL-5" target="LV0ptDyt47f4ZOMQPDEL-28" edge="1">
          <mxGeometry width="50" height="50" relative="1" as="geometry">
            <mxPoint x="450" y="3300" as="sourcePoint" />
            <mxPoint x="500" y="3250" as="targetPoint" />
          </mxGeometry>
        </mxCell>
        <mxCell id="jr3rR2_mMYJbRNeasbv--10" value="attack" style="edgeLabel;html=1;align=center;verticalAlign=middle;resizable=0;points=[];" parent="jr3rR2_mMYJbRNeasbv--4" vertex="1" connectable="0">
          <mxGeometry x="-0.0476" y="2" relative="1" as="geometry">
            <mxPoint as="offset" />
          </mxGeometry>
        </mxCell>
        <mxCell id="jr3rR2_mMYJbRNeasbv--5" value="" style="endArrow=classic;html=1;rounded=0;entryX=0;entryY=0.5;entryDx=0;entryDy=0;" parent="1" source="LV0ptDyt47f4ZOMQPDEL-5" target="LV0ptDyt47f4ZOMQPDEL-48" edge="1">
          <mxGeometry width="50" height="50" relative="1" as="geometry">
            <mxPoint x="470" y="3350" as="sourcePoint" />
            <mxPoint x="520" y="3300" as="targetPoint" />
          </mxGeometry>
        </mxCell>
        <mxCell id="jr3rR2_mMYJbRNeasbv--11" value="crouch" style="edgeLabel;html=1;align=center;verticalAlign=middle;resizable=0;points=[];" parent="jr3rR2_mMYJbRNeasbv--5" vertex="1" connectable="0">
          <mxGeometry x="0.1128" y="2" relative="1" as="geometry">
            <mxPoint as="offset" />
          </mxGeometry>
        </mxCell>
        <mxCell id="jr3rR2_mMYJbRNeasbv--6" value="" style="endArrow=classic;html=1;rounded=0;exitX=1;exitY=1;exitDx=0;exitDy=0;entryX=0;entryY=0.5;entryDx=0;entryDy=0;" parent="1" source="LV0ptDyt47f4ZOMQPDEL-5" target="LV0ptDyt47f4ZOMQPDEL-26" edge="1">
          <mxGeometry width="50" height="50" relative="1" as="geometry">
            <mxPoint x="520" y="3420" as="sourcePoint" />
            <mxPoint x="570" y="3370" as="targetPoint" />
          </mxGeometry>
        </mxCell>
        <mxCell id="jr3rR2_mMYJbRNeasbv--12" value="nothing" style="edgeLabel;html=1;align=center;verticalAlign=middle;resizable=0;points=[];" parent="jr3rR2_mMYJbRNeasbv--6" vertex="1" connectable="0">
          <mxGeometry x="0.1259" relative="1" as="geometry">
            <mxPoint as="offset" />
          </mxGeometry>
        </mxCell>
        <mxCell id="jr3rR2_mMYJbRNeasbv--14" value="" style="endArrow=classic;html=1;rounded=0;exitX=1;exitY=0;exitDx=0;exitDy=0;entryX=0;entryY=0.5;entryDx=0;entryDy=0;" parent="1" source="LV0ptDyt47f4ZOMQPDEL-33" target="LV0ptDyt47f4ZOMQPDEL-34" edge="1">
          <mxGeometry width="50" height="50" relative="1" as="geometry">
            <mxPoint x="229.25" y="3630" as="sourcePoint" />
            <mxPoint x="279.25" y="3580" as="targetPoint" />
          </mxGeometry>
        </mxCell>
        <mxCell id="jr3rR2_mMYJbRNeasbv--15" value="" style="endArrow=classic;html=1;rounded=0;exitX=1;exitY=1;exitDx=0;exitDy=0;entryX=0;entryY=0.5;entryDx=0;entryDy=0;" parent="1" source="LV0ptDyt47f4ZOMQPDEL-33" target="LV0ptDyt47f4ZOMQPDEL-35" edge="1">
          <mxGeometry width="50" height="50" relative="1" as="geometry">
            <mxPoint x="249.25" y="3860" as="sourcePoint" />
            <mxPoint x="299.25" y="3810" as="targetPoint" />
          </mxGeometry>
        </mxCell>
        <mxCell id="jr3rR2_mMYJbRNeasbv--17" value="" style="endArrow=classic;html=1;rounded=0;exitX=0.5;exitY=1;exitDx=0;exitDy=0;entryX=0.5;entryY=0;entryDx=0;entryDy=0;" parent="1" source="LV0ptDyt47f4ZOMQPDEL-34" target="LV0ptDyt47f4ZOMQPDEL-35" edge="1">
          <mxGeometry width="50" height="50" relative="1" as="geometry">
            <mxPoint x="379.25" y="3760" as="sourcePoint" />
            <mxPoint x="429.25" y="3710" as="targetPoint" />
          </mxGeometry>
        </mxCell>
        <mxCell id="jr3rR2_mMYJbRNeasbv--21" value="" style="endArrow=classic;html=1;rounded=0;entryX=0;entryY=0.5;entryDx=0;entryDy=0;" parent="1" source="LV0ptDyt47f4ZOMQPDEL-39" target="LV0ptDyt47f4ZOMQPDEL-44" edge="1">
          <mxGeometry width="50" height="50" relative="1" as="geometry">
            <mxPoint x="790" y="3750" as="sourcePoint" />
            <mxPoint x="840" y="3700" as="targetPoint" />
          </mxGeometry>
        </mxCell>
        <mxCell id="jr3rR2_mMYJbRNeasbv--26" value="jump" style="edgeLabel;html=1;align=center;verticalAlign=middle;resizable=0;points=[];" parent="jr3rR2_mMYJbRNeasbv--21" vertex="1" connectable="0">
          <mxGeometry x="0.0758" y="3" relative="1" as="geometry">
            <mxPoint as="offset" />
          </mxGeometry>
        </mxCell>
        <mxCell id="jr3rR2_mMYJbRNeasbv--23" value="" style="endArrow=classic;html=1;rounded=0;entryX=0;entryY=0.5;entryDx=0;entryDy=0;" parent="1" source="LV0ptDyt47f4ZOMQPDEL-39" target="LV0ptDyt47f4ZOMQPDEL-41" edge="1">
          <mxGeometry width="50" height="50" relative="1" as="geometry">
            <mxPoint x="760" y="3910" as="sourcePoint" />
            <mxPoint x="810" y="3860" as="targetPoint" />
          </mxGeometry>
        </mxCell>
        <mxCell id="jr3rR2_mMYJbRNeasbv--28" value="couch" style="edgeLabel;html=1;align=center;verticalAlign=middle;resizable=0;points=[];" parent="jr3rR2_mMYJbRNeasbv--23" vertex="1" connectable="0">
          <mxGeometry x="0.0089" relative="1" as="geometry">
            <mxPoint as="offset" />
          </mxGeometry>
        </mxCell>
        <mxCell id="jr3rR2_mMYJbRNeasbv--33" value="" style="endArrow=classic;html=1;rounded=0;entryX=0;entryY=0.5;entryDx=0;entryDy=0;" parent="1" source="LV0ptDyt47f4ZOMQPDEL-50" target="LV0ptDyt47f4ZOMQPDEL-52" edge="1">
          <mxGeometry width="50" height="50" relative="1" as="geometry">
            <mxPoint x="480" y="4130" as="sourcePoint" />
            <mxPoint x="530" y="4080" as="targetPoint" />
          </mxGeometry>
        </mxCell>
        <mxCell id="jr3rR2_mMYJbRNeasbv--39" value="dodge" style="edgeLabel;html=1;align=center;verticalAlign=middle;resizable=0;points=[];" parent="jr3rR2_mMYJbRNeasbv--33" vertex="1" connectable="0">
          <mxGeometry x="0.0584" y="3" relative="1" as="geometry">
            <mxPoint as="offset" />
          </mxGeometry>
        </mxCell>
        <mxCell id="jr3rR2_mMYJbRNeasbv--34" value="" style="endArrow=classic;html=1;rounded=0;entryX=0;entryY=0.5;entryDx=0;entryDy=0;" parent="1" source="LV0ptDyt47f4ZOMQPDEL-50" target="LV0ptDyt47f4ZOMQPDEL-53" edge="1">
          <mxGeometry width="50" height="50" relative="1" as="geometry">
            <mxPoint x="500" y="4210" as="sourcePoint" />
            <mxPoint x="550" y="4160" as="targetPoint" />
          </mxGeometry>
        </mxCell>
        <mxCell id="jr3rR2_mMYJbRNeasbv--42" value="jump" style="edgeLabel;html=1;align=center;verticalAlign=middle;resizable=0;points=[];" parent="jr3rR2_mMYJbRNeasbv--34" vertex="1" connectable="0">
          <mxGeometry x="0.1003" relative="1" as="geometry">
            <mxPoint as="offset" />
          </mxGeometry>
        </mxCell>
        <mxCell id="jr3rR2_mMYJbRNeasbv--35" value="" style="endArrow=classic;html=1;rounded=0;entryX=0;entryY=0.5;entryDx=0;entryDy=0;" parent="1" source="LV0ptDyt47f4ZOMQPDEL-50" target="LV0ptDyt47f4ZOMQPDEL-54" edge="1">
          <mxGeometry width="50" height="50" relative="1" as="geometry">
            <mxPoint x="520" y="4250" as="sourcePoint" />
            <mxPoint x="570" y="4200" as="targetPoint" />
          </mxGeometry>
        </mxCell>
        <mxCell id="jr3rR2_mMYJbRNeasbv--43" value="attack" style="edgeLabel;html=1;align=center;verticalAlign=middle;resizable=0;points=[];" parent="jr3rR2_mMYJbRNeasbv--35" vertex="1" connectable="0">
          <mxGeometry x="0.0511" relative="1" as="geometry">
            <mxPoint as="offset" />
          </mxGeometry>
        </mxCell>
        <mxCell id="jr3rR2_mMYJbRNeasbv--36" value="" style="endArrow=classic;html=1;rounded=0;entryX=0;entryY=0.5;entryDx=0;entryDy=0;" parent="1" source="LV0ptDyt47f4ZOMQPDEL-50" target="LV0ptDyt47f4ZOMQPDEL-51" edge="1">
          <mxGeometry width="50" height="50" relative="1" as="geometry">
            <mxPoint x="490" y="4390" as="sourcePoint" />
            <mxPoint x="540" y="4340" as="targetPoint" />
          </mxGeometry>
        </mxCell>
        <mxCell id="jr3rR2_mMYJbRNeasbv--44" value="fw+jump" style="edgeLabel;html=1;align=center;verticalAlign=middle;resizable=0;points=[];" parent="jr3rR2_mMYJbRNeasbv--36" vertex="1" connectable="0">
          <mxGeometry x="-0.001" y="-1" relative="1" as="geometry">
            <mxPoint as="offset" />
          </mxGeometry>
        </mxCell>
        <mxCell id="jr3rR2_mMYJbRNeasbv--37" value="" style="endArrow=classic;html=1;rounded=0;entryX=0;entryY=0.5;entryDx=0;entryDy=0;" parent="1" source="LV0ptDyt47f4ZOMQPDEL-50" target="LV0ptDyt47f4ZOMQPDEL-55" edge="1">
          <mxGeometry width="50" height="50" relative="1" as="geometry">
            <mxPoint x="480" y="4460" as="sourcePoint" />
            <mxPoint x="530" y="4410" as="targetPoint" />
          </mxGeometry>
        </mxCell>
        <mxCell id="jr3rR2_mMYJbRNeasbv--45" value="uncrouch" style="edgeLabel;html=1;align=center;verticalAlign=middle;resizable=0;points=[];" parent="jr3rR2_mMYJbRNeasbv--37" vertex="1" connectable="0">
          <mxGeometry x="-0.0825" y="-2" relative="1" as="geometry">
            <mxPoint as="offset" />
          </mxGeometry>
        </mxCell>
        <mxCell id="jr3rR2_mMYJbRNeasbv--38" value="" style="endArrow=classic;html=1;rounded=0;entryX=0;entryY=0.5;entryDx=0;entryDy=0;" parent="1" source="LV0ptDyt47f4ZOMQPDEL-50" target="LV0ptDyt47f4ZOMQPDEL-56" edge="1">
          <mxGeometry width="50" height="50" relative="1" as="geometry">
            <mxPoint x="470" y="4550" as="sourcePoint" />
            <mxPoint x="520" y="4500" as="targetPoint" />
          </mxGeometry>
        </mxCell>
        <mxCell id="jr3rR2_mMYJbRNeasbv--46" value="crouch" style="edgeLabel;html=1;align=center;verticalAlign=middle;resizable=0;points=[];" parent="jr3rR2_mMYJbRNeasbv--38" vertex="1" connectable="0">
          <mxGeometry x="-0.1917" y="-1" relative="1" as="geometry">
            <mxPoint as="offset" />
          </mxGeometry>
        </mxCell>
        <mxCell id="jr3rR2_mMYJbRNeasbv--48" value="&lt;b&gt;grapple points&lt;br&gt;exists&lt;br&gt;&lt;/b&gt;" style="rounded=1;whiteSpace=wrap;html=1;fontSize=16;gradientColor=#99CCFF;" parent="1" vertex="1">
          <mxGeometry x="39.25" y="4780" width="120" height="60" as="geometry" />
        </mxCell>
        <mxCell id="jr3rR2_mMYJbRNeasbv--49" value="&lt;b&gt;is player near in &lt;br&gt;range of a &lt;br&gt;grapple point?&lt;/b&gt;" style="rhombus;whiteSpace=wrap;html=1;fontSize=16;gradientColor=#FFB570;" parent="1" vertex="1">
          <mxGeometry x="205.75" y="4715" width="180" height="190" as="geometry" />
        </mxCell>
        <mxCell id="jr3rR2_mMYJbRNeasbv--50" value="&lt;b&gt;do nothing&lt;/b&gt;" style="rounded=1;whiteSpace=wrap;html=1;fontSize=16;gradientColor=#E6E6E6;" parent="1" vertex="1">
          <mxGeometry x="408.5" y="4690" width="120" height="60" as="geometry" />
        </mxCell>
        <mxCell id="jr3rR2_mMYJbRNeasbv--51" value="&lt;b&gt;add to array&lt;/b&gt;" style="rounded=1;whiteSpace=wrap;html=1;fontSize=16;gradientColor=#99CCFF;" parent="1" vertex="1">
          <mxGeometry x="413" y="4850" width="120" height="60" as="geometry" />
        </mxCell>
        <mxCell id="jr3rR2_mMYJbRNeasbv--52" value="&lt;b&gt;what kind of &lt;br&gt;grappling point?&lt;br&gt;swing?&lt;br&gt;pull?&lt;br&gt;tug?&lt;/b&gt;" style="rhombus;whiteSpace=wrap;html=1;fontSize=16;gradientColor=#FFB570;" parent="1" vertex="1">
          <mxGeometry x="710" y="4715" width="200" height="200" as="geometry" />
        </mxCell>
        <mxCell id="jr3rR2_mMYJbRNeasbv--72" style="rounded=0;orthogonalLoop=1;jettySize=auto;html=1;exitX=1;exitY=0.5;exitDx=0;exitDy=0;entryX=0;entryY=0.5;entryDx=0;entryDy=0;" parent="1" source="jr3rR2_mMYJbRNeasbv--53" target="jr3rR2_mMYJbRNeasbv--54" edge="1">
          <mxGeometry relative="1" as="geometry" />
        </mxCell>
        <mxCell id="jr3rR2_mMYJbRNeasbv--53" value="&lt;b&gt;multiple grapple &lt;br&gt;points exists&lt;br&gt;&lt;/b&gt;" style="rounded=1;whiteSpace=wrap;html=1;fontSize=16;gradientColor=#99CCFF;" parent="1" vertex="1">
          <mxGeometry x="15" y="5120" width="180" height="90" as="geometry" />
        </mxCell>
        <mxCell id="jr3rR2_mMYJbRNeasbv--73" style="rounded=0;orthogonalLoop=1;jettySize=auto;html=1;exitX=1;exitY=1;exitDx=0;exitDy=0;entryX=0;entryY=0.5;entryDx=0;entryDy=0;" parent="1" source="jr3rR2_mMYJbRNeasbv--54" target="jr3rR2_mMYJbRNeasbv--55" edge="1">
          <mxGeometry relative="1" as="geometry" />
        </mxCell>
        <mxCell id="jr3rR2_mMYJbRNeasbv--77" value="yes" style="edgeLabel;html=1;align=center;verticalAlign=middle;resizable=0;points=[];" parent="jr3rR2_mMYJbRNeasbv--73" vertex="1" connectable="0">
          <mxGeometry x="-0.24" y="-2" relative="1" as="geometry">
            <mxPoint as="offset" />
          </mxGeometry>
        </mxCell>
        <mxCell id="jr3rR2_mMYJbRNeasbv--75" style="rounded=0;orthogonalLoop=1;jettySize=auto;html=1;exitX=1;exitY=0;exitDx=0;exitDy=0;entryX=0;entryY=0.5;entryDx=0;entryDy=0;" parent="1" source="jr3rR2_mMYJbRNeasbv--54" target="jr3rR2_mMYJbRNeasbv--74" edge="1">
          <mxGeometry relative="1" as="geometry" />
        </mxCell>
        <mxCell id="jr3rR2_mMYJbRNeasbv--76" value="no" style="edgeLabel;html=1;align=center;verticalAlign=middle;resizable=0;points=[];" parent="jr3rR2_mMYJbRNeasbv--75" vertex="1" connectable="0">
          <mxGeometry x="-0.1198" relative="1" as="geometry">
            <mxPoint as="offset" />
          </mxGeometry>
        </mxCell>
        <mxCell id="jr3rR2_mMYJbRNeasbv--54" value="&lt;b&gt;is player in &lt;br&gt;range of a &lt;br&gt;grapple point?&lt;/b&gt;" style="rhombus;whiteSpace=wrap;html=1;fontSize=16;gradientColor=#FFB570;" parent="1" vertex="1">
          <mxGeometry x="233" y="5070" width="180" height="190" as="geometry" />
        </mxCell>
        <mxCell id="jr3rR2_mMYJbRNeasbv--80" style="rounded=0;orthogonalLoop=1;jettySize=auto;html=1;exitX=1;exitY=0.5;exitDx=0;exitDy=0;entryX=0;entryY=0.5;entryDx=0;entryDy=0;" parent="1" source="jr3rR2_mMYJbRNeasbv--55" target="jr3rR2_mMYJbRNeasbv--57" edge="1">
          <mxGeometry relative="1" as="geometry" />
        </mxCell>
        <mxCell id="jr3rR2_mMYJbRNeasbv--55" value="&lt;b&gt;add to array&lt;/b&gt;" style="rounded=1;whiteSpace=wrap;html=1;fontSize=16;gradientColor=#99CCFF;" parent="1" vertex="1">
          <mxGeometry x="425" y="5210" width="120" height="60" as="geometry" />
        </mxCell>
        <mxCell id="jr3rR2_mMYJbRNeasbv--56" value="&lt;b&gt;is grapple point the closest point?&lt;/b&gt;" style="rhombus;whiteSpace=wrap;html=1;fontSize=16;gradientColor=#FFB570;" parent="1" vertex="1">
          <mxGeometry x="770" y="5145" width="180" height="190" as="geometry" />
        </mxCell>
        <mxCell id="jr3rR2_mMYJbRNeasbv--57" value="&lt;b&gt;compare points&lt;/b&gt;" style="rounded=1;whiteSpace=wrap;html=1;fontSize=16;gradientColor=#99CCFF;" parent="1" vertex="1">
          <mxGeometry x="590" y="5210" width="120" height="60" as="geometry" />
        </mxCell>
        <mxCell id="jr3rR2_mMYJbRNeasbv--58" value="&lt;b&gt;what kind of &lt;br&gt;grappling point?&lt;br&gt;swing?&lt;br&gt;pull?&lt;br&gt;tug?&lt;/b&gt;" style="rhombus;whiteSpace=wrap;html=1;fontSize=16;gradientColor=#FFB570;" parent="1" vertex="1">
          <mxGeometry x="1010" y="5140" width="200" height="200" as="geometry" />
        </mxCell>
        <mxCell id="jr3rR2_mMYJbRNeasbv--59" value="&lt;b&gt;player let go of grappling point&lt;/b&gt;" style="rounded=1;whiteSpace=wrap;html=1;fontSize=16;gradientColor=#99CCFF;" parent="1" vertex="1">
          <mxGeometry x="25.75" y="5480" width="180" height="90" as="geometry" />
        </mxCell>
        <mxCell id="jr3rR2_mMYJbRNeasbv--66" style="rounded=0;orthogonalLoop=1;jettySize=auto;html=1;exitX=1;exitY=1;exitDx=0;exitDy=0;entryX=0;entryY=0.5;entryDx=0;entryDy=0;" parent="1" source="jr3rR2_mMYJbRNeasbv--60" target="jr3rR2_mMYJbRNeasbv--63" edge="1">
          <mxGeometry relative="1" as="geometry" />
        </mxCell>
        <mxCell id="jr3rR2_mMYJbRNeasbv--79" value="no" style="edgeLabel;html=1;align=center;verticalAlign=middle;resizable=0;points=[];" parent="jr3rR2_mMYJbRNeasbv--66" vertex="1" connectable="0">
          <mxGeometry x="0.1331" y="-2" relative="1" as="geometry">
            <mxPoint as="offset" />
          </mxGeometry>
        </mxCell>
        <mxCell id="jr3rR2_mMYJbRNeasbv--71" style="rounded=0;orthogonalLoop=1;jettySize=auto;html=1;exitX=1;exitY=0;exitDx=0;exitDy=0;entryX=0;entryY=0.5;entryDx=0;entryDy=0;" parent="1" source="jr3rR2_mMYJbRNeasbv--60" target="jr3rR2_mMYJbRNeasbv--61" edge="1">
          <mxGeometry relative="1" as="geometry" />
        </mxCell>
        <mxCell id="jr3rR2_mMYJbRNeasbv--78" value="yes" style="edgeLabel;html=1;align=center;verticalAlign=middle;resizable=0;points=[];" parent="jr3rR2_mMYJbRNeasbv--71" vertex="1" connectable="0">
          <mxGeometry x="-0.165" y="2" relative="1" as="geometry">
            <mxPoint y="1" as="offset" />
          </mxGeometry>
        </mxCell>
        <mxCell id="jr3rR2_mMYJbRNeasbv--60" value="&lt;b&gt;is player &lt;br&gt;in range of another&lt;br&gt;grapple point?&lt;/b&gt;" style="rhombus;whiteSpace=wrap;html=1;fontSize=16;gradientColor=#FFB570;" parent="1" vertex="1">
          <mxGeometry x="249.25" y="5435" width="190" height="180" as="geometry" />
        </mxCell>
        <mxCell id="jr3rR2_mMYJbRNeasbv--61" value="&lt;b&gt;use that grappling point&lt;/b&gt;" style="rounded=1;whiteSpace=wrap;html=1;fontSize=16;gradientColor=#99CCFF;" parent="1" vertex="1">
          <mxGeometry x="457.5" y="5390" width="135" height="60" as="geometry" />
        </mxCell>
        <mxCell id="jr3rR2_mMYJbRNeasbv--62" value="&lt;b&gt;grapple&lt;/b&gt;" style="rounded=1;whiteSpace=wrap;html=1;fontSize=16;gradientColor=#99CCFF;" parent="1" vertex="1">
          <mxGeometry x="700" y="5640" width="135" height="60" as="geometry" />
        </mxCell>
        <mxCell id="jr3rR2_mMYJbRNeasbv--67" style="rounded=0;orthogonalLoop=1;jettySize=auto;html=1;exitX=1;exitY=1;exitDx=0;exitDy=0;entryX=0;entryY=0.5;entryDx=0;entryDy=0;" parent="1" source="jr3rR2_mMYJbRNeasbv--63" target="jr3rR2_mMYJbRNeasbv--62" edge="1">
          <mxGeometry relative="1" as="geometry" />
        </mxCell>
        <mxCell id="jr3rR2_mMYJbRNeasbv--70" value="yes" style="edgeLabel;html=1;align=center;verticalAlign=middle;resizable=0;points=[];" parent="jr3rR2_mMYJbRNeasbv--67" vertex="1" connectable="0">
          <mxGeometry x="0.0035" y="-3" relative="1" as="geometry">
            <mxPoint as="offset" />
          </mxGeometry>
        </mxCell>
        <mxCell id="jr3rR2_mMYJbRNeasbv--68" style="rounded=0;orthogonalLoop=1;jettySize=auto;html=1;exitX=1;exitY=0;exitDx=0;exitDy=0;entryX=0;entryY=0.5;entryDx=0;entryDy=0;" parent="1" source="jr3rR2_mMYJbRNeasbv--63" target="jr3rR2_mMYJbRNeasbv--64" edge="1">
          <mxGeometry relative="1" as="geometry" />
        </mxCell>
        <mxCell id="jr3rR2_mMYJbRNeasbv--69" value="no" style="edgeLabel;html=1;align=center;verticalAlign=middle;resizable=0;points=[];" parent="jr3rR2_mMYJbRNeasbv--68" vertex="1" connectable="0">
          <mxGeometry x="-0.1229" y="2" relative="1" as="geometry">
            <mxPoint as="offset" />
          </mxGeometry>
        </mxCell>
        <mxCell id="jr3rR2_mMYJbRNeasbv--63" value="&lt;b&gt;is player &lt;br&gt;in range of the previously used&lt;br&gt;grapple point?&lt;/b&gt;" style="rhombus;whiteSpace=wrap;html=1;fontSize=16;gradientColor=#FFB570;" parent="1" vertex="1">
          <mxGeometry x="450" y="5520" width="190" height="200" as="geometry" />
        </mxCell>
        <mxCell id="jr3rR2_mMYJbRNeasbv--64" value="&lt;b&gt;do nothing&lt;/b&gt;" style="rounded=1;whiteSpace=wrap;html=1;fontSize=16;gradientColor=#E6E6E6;" parent="1" vertex="1">
          <mxGeometry x="700" y="5540" width="120" height="60" as="geometry" />
        </mxCell>
        <mxCell id="jr3rR2_mMYJbRNeasbv--65" value="" style="endArrow=classic;html=1;rounded=0;exitX=1;exitY=0.5;exitDx=0;exitDy=0;entryX=0;entryY=0.5;entryDx=0;entryDy=0;" parent="1" source="jr3rR2_mMYJbRNeasbv--59" target="jr3rR2_mMYJbRNeasbv--60" edge="1">
          <mxGeometry width="50" height="50" relative="1" as="geometry">
            <mxPoint x="210" y="5640" as="sourcePoint" />
            <mxPoint x="260" y="5590" as="targetPoint" />
          </mxGeometry>
        </mxCell>
        <mxCell id="jr3rR2_mMYJbRNeasbv--74" value="&lt;b&gt;do nothing&lt;/b&gt;" style="rounded=1;whiteSpace=wrap;html=1;fontSize=16;gradientColor=#E6E6E6;" parent="1" vertex="1">
          <mxGeometry x="425" y="5060" width="120" height="60" as="geometry" />
        </mxCell>
        <mxCell id="jr3rR2_mMYJbRNeasbv--81" value="" style="endArrow=classic;html=1;rounded=0;exitX=1;exitY=0.5;exitDx=0;exitDy=0;entryX=0;entryY=0.5;entryDx=0;entryDy=0;" parent="1" source="jr3rR2_mMYJbRNeasbv--57" target="jr3rR2_mMYJbRNeasbv--56" edge="1">
          <mxGeometry width="50" height="50" relative="1" as="geometry">
            <mxPoint x="770" y="5380" as="sourcePoint" />
            <mxPoint x="820" y="5330" as="targetPoint" />
          </mxGeometry>
        </mxCell>
        <mxCell id="jr3rR2_mMYJbRNeasbv--83" value="" style="endArrow=classic;html=1;rounded=0;exitX=1;exitY=0.5;exitDx=0;exitDy=0;entryX=0;entryY=0.5;entryDx=0;entryDy=0;" parent="1" source="jr3rR2_mMYJbRNeasbv--48" target="jr3rR2_mMYJbRNeasbv--49" edge="1">
          <mxGeometry width="50" height="50" relative="1" as="geometry">
            <mxPoint x="340" y="4860" as="sourcePoint" />
            <mxPoint x="220" y="4810" as="targetPoint" />
          </mxGeometry>
        </mxCell>
        <mxCell id="jr3rR2_mMYJbRNeasbv--84" value="" style="endArrow=classic;html=1;rounded=0;exitX=1;exitY=0;exitDx=0;exitDy=0;entryX=0;entryY=0.5;entryDx=0;entryDy=0;" parent="1" source="jr3rR2_mMYJbRNeasbv--49" target="jr3rR2_mMYJbRNeasbv--50" edge="1">
          <mxGeometry width="50" height="50" relative="1" as="geometry">
            <mxPoint x="390" y="4750" as="sourcePoint" />
            <mxPoint x="400" y="4680" as="targetPoint" />
          </mxGeometry>
        </mxCell>
        <mxCell id="jr3rR2_mMYJbRNeasbv--85" value="" style="endArrow=classic;html=1;rounded=0;exitX=1;exitY=1;exitDx=0;exitDy=0;entryX=0;entryY=0.5;entryDx=0;entryDy=0;" parent="1" source="jr3rR2_mMYJbRNeasbv--49" target="jr3rR2_mMYJbRNeasbv--51" edge="1">
          <mxGeometry width="50" height="50" relative="1" as="geometry">
            <mxPoint x="460" y="4840" as="sourcePoint" />
            <mxPoint x="510" y="4790" as="targetPoint" />
          </mxGeometry>
        </mxCell>
        <mxCell id="jr3rR2_mMYJbRNeasbv--87" style="rounded=0;orthogonalLoop=1;jettySize=auto;html=1;exitX=1;exitY=0;exitDx=0;exitDy=0;entryX=0.156;entryY=1.049;entryDx=0;entryDy=0;entryPerimeter=0;" parent="1" source="LV0ptDyt47f4ZOMQPDEL-74" target="LV0ptDyt47f4ZOMQPDEL-79" edge="1">
          <mxGeometry relative="1" as="geometry" />
        </mxCell>
        <mxCell id="WUoBNiedKWJgxC_mcz5l-1" value="idle" style="rounded=1;whiteSpace=wrap;html=1;fontSize=16;gradientColor=#FFFFCC;" vertex="1" parent="1">
          <mxGeometry x="300" y="7480" width="120" height="60" as="geometry" />
        </mxCell>
        <mxCell id="WUoBNiedKWJgxC_mcz5l-2" value="grounded" style="rounded=1;whiteSpace=wrap;html=1;fontSize=16;gradientColor=#99CCFF;" vertex="1" parent="1">
          <mxGeometry x="408.5" y="7310" width="120" height="60" as="geometry" />
        </mxCell>
        <mxCell id="WUoBNiedKWJgxC_mcz5l-3" value="crouched" style="rounded=1;whiteSpace=wrap;html=1;fontSize=16;gradientColor=#99CCFF;" vertex="1" parent="1">
          <mxGeometry x="408" y="7200" width="120" height="60" as="geometry" />
        </mxCell>
        <mxCell id="WUoBNiedKWJgxC_mcz5l-4" value="air" style="rounded=1;whiteSpace=wrap;html=1;fontSize=16;gradientColor=#99CCFF;" vertex="1" parent="1">
          <mxGeometry x="640.75" y="7200" width="120" height="60" as="geometry" />
        </mxCell>
        <mxCell id="WUoBNiedKWJgxC_mcz5l-6" value="grind" style="rounded=1;whiteSpace=wrap;html=1;fontSize=16;gradientColor=#99CCFF;" vertex="1" parent="1">
          <mxGeometry x="640" y="7310" width="120" height="60" as="geometry" />
        </mxCell>
        <mxCell id="WUoBNiedKWJgxC_mcz5l-7" value="magnetized" style="rounded=1;whiteSpace=wrap;html=1;fontSize=16;gradientColor=#99CCFF;" vertex="1" parent="1">
          <mxGeometry x="640.75" y="7410" width="120" height="60" as="geometry" />
        </mxCell>
        <mxCell id="WUoBNiedKWJgxC_mcz5l-8" value="grapple" style="rounded=1;whiteSpace=wrap;html=1;fontSize=16;gradientColor=#99CCFF;" vertex="1" parent="1">
          <mxGeometry x="640" y="7520" width="120" height="60" as="geometry" />
        </mxCell>
      </root>
    </mxGraphModel>
  </diagram>
</mxfile>
